<?xml version="1.0" encoding="UTF-8" standalone="no"?>
<!-- Created with Inkscape (http://www.inkscape.org/) -->

<svg
   xmlns:dc="http://purl.org/dc/elements/1.1/"
   xmlns:cc="http://creativecommons.org/ns#"
   xmlns:rdf="http://www.w3.org/1999/02/22-rdf-syntax-ns#"
   xmlns:svg="http://www.w3.org/2000/svg"
   xmlns="http://www.w3.org/2000/svg"
   xmlns:sodipodi="http://sodipodi.sourceforge.net/DTD/sodipodi-0.dtd"
   xmlns:inkscape="http://www.inkscape.org/namespaces/inkscape"
   width="210mm"
   height="297mm"
   viewBox="0 0 744.09448819 1052.3622047"
   id="svg5775"
   version="1.1"
   inkscape:version="0.91 r13725"
   sodipodi:docname="manipulation.svg">
  <defs
     id="defs5777">
    <clipPath
       clipPathUnits="userSpaceOnUse"
       id="clipPath502">
      <path
         d="m 251.776,346.799 1.897,0 0,-1.896 -1.897,0 0,1.896 z"
         id="path504"
         inkscape:connector-curvature="0" />
    </clipPath>
    <clipPath
       clipPathUnits="userSpaceOnUse"
       id="clipPath506">
      <path
         d="m 251.777,344.903 1.895,0 0,1.895 -1.895,0 0,-1.895 z"
         id="path508"
         inkscape:connector-curvature="0" />
    </clipPath>
    <clipPath
       clipPathUnits="userSpaceOnUse"
       id="clipPath526">
      <path
         d="m 243.843,341.379 1.896,0 0,-1.898 -1.896,0 0,1.898 z"
         id="path528"
         inkscape:connector-curvature="0" />
    </clipPath>
    <clipPath
       clipPathUnits="userSpaceOnUse"
       id="clipPath530">
      <path
         d="m 243.842,339.482 1.897,0 0,1.897 -1.897,0 0,-1.897 z"
         id="path532"
         inkscape:connector-curvature="0" />
    </clipPath>
    <clipPath
       clipPathUnits="userSpaceOnUse"
       id="clipPath550">
      <path
         d="m 239.709,348.154 1.899,0 0,-1.897 -1.899,0 0,1.897 z"
         id="path552"
         inkscape:connector-curvature="0" />
    </clipPath>
    <clipPath
       clipPathUnits="userSpaceOnUse"
       id="clipPath554">
      <path
         d="m 239.709,346.258 1.9,0 0,1.896 -1.9,0 0,-1.896 z"
         id="path556"
         inkscape:connector-curvature="0" />
    </clipPath>
    <clipPath
       clipPathUnits="userSpaceOnUse"
       id="clipPath598">
      <path
         d="m 247.811,345.34 1.896,0 0,-1.898 -1.896,0 0,1.898 z"
         id="path600"
         inkscape:connector-curvature="0" />
    </clipPath>
    <clipPath
       clipPathUnits="userSpaceOnUse"
       id="clipPath602">
      <path
         d="m 247.811,343.443 1.895,0 0,1.897 -1.895,0 0,-1.897 z"
         id="path604"
         inkscape:connector-curvature="0" />
    </clipPath>
    <clipPath
       clipPathUnits="userSpaceOnUse"
       id="clipPath646">
      <path
         d="m 255.743,344.187 1.897,0 0,-1.897 -1.897,0 0,1.897 z"
         id="path648"
         inkscape:connector-curvature="0" />
    </clipPath>
    <clipPath
       clipPathUnits="userSpaceOnUse"
       id="clipPath650">
      <path
         d="m 255.745,342.291 1.894,0 0,1.896 -1.894,0 0,-1.896 z"
         id="path652"
         inkscape:connector-curvature="0" />
    </clipPath>
  </defs>
  <sodipodi:namedview
     id="base"
     pagecolor="#ffffff"
     bordercolor="#666666"
     borderopacity="1.0"
     inkscape:pageopacity="0.0"
     inkscape:pageshadow="2"
     inkscape:zoom="2.8"
     inkscape:cx="410.08051"
     inkscape:cy="552.19152"
     inkscape:document-units="px"
     inkscape:current-layer="layer1"
     showgrid="false"
     inkscape:window-width="1440"
     inkscape:window-height="851"
     inkscape:window-x="0"
     inkscape:window-y="25"
     inkscape:window-maximized="1" />
  <metadata
     id="metadata5780">
    <rdf:RDF>
      <cc:Work
         rdf:about="">
        <dc:format>image/svg+xml</dc:format>
        <dc:type
           rdf:resource="http://purl.org/dc/dcmitype/StillImage" />
        <dc:title></dc:title>
      </cc:Work>
    </rdf:RDF>
  </metadata>
  <g
     inkscape:label="Layer 1"
     inkscape:groupmode="layer"
     id="layer1">
    <rect
       style="color:#000000;clip-rule:nonzero;display:inline;overflow:visible;visibility:visible;opacity:1;isolation:auto;mix-blend-mode:normal;color-interpolation:sRGB;color-interpolation-filters:linearRGB;solid-color:#000000;solid-opacity:1;fill:#ffffff;fill-opacity:1;fill-rule:nonzero;stroke:none;stroke-width:1px;stroke-linecap:butt;stroke-linejoin:miter;stroke-miterlimit:4;stroke-dasharray:none;stroke-dashoffset:0;stroke-opacity:1;color-rendering:auto;image-rendering:auto;shape-rendering:auto;text-rendering:auto;enable-background:accumulate"
       id="rect6140"
       width="345.47217"
       height="332.34018"
       x="278.80209"
       y="288.68689"
       inkscape:export-filename="/home/dvrnd/tmp/djcourse/vis/lections/figures/week05/fig_00_05.png"
       inkscape:export-xdpi="300"
       inkscape:export-ydpi="300" />
    <g
       transform="matrix(1.25,0,0,-1.25,164.06163,859.94102)"
       id="g5510">
      <path
         d="m 244.791,341.6533 0,1.627"
         style="fill:none;stroke:#d3d2d2;stroke-width:0.30000001;stroke-linecap:butt;stroke-linejoin:miter;stroke-miterlimit:10;stroke-dasharray:none;stroke-opacity:1"
         id="path22"
         inkscape:connector-curvature="0" />
      <path
         d="m 244.1504,342.8877 1.281,0 -0.639,1.111 -0.642,-1.111 z"
         style="fill:#d3d2d2;fill-opacity:1;fill-rule:nonzero;stroke:none"
         id="path26"
         inkscape:connector-curvature="0" />
      <path
         d="m 240.6592,345.8506 0,-3.658"
         style="fill:none;stroke:#d3d2d2;stroke-width:0.30000001;stroke-linecap:butt;stroke-linejoin:miter;stroke-miterlimit:10;stroke-dasharray:none;stroke-opacity:1"
         id="path30"
         inkscape:connector-curvature="0" />
      <path
         inkscape:connector-curvature="0"
         id="path460"
         style="fill:#393536;fill-opacity:1;fill-rule:nonzero;stroke:none"
         d="m 223.838,334.272 -25.422,0 0,0.578 25.422,0 0,-0.578 z" />
      <path
         inkscape:connector-curvature="0"
         id="path462"
         style="fill:#393536;fill-opacity:1;fill-rule:nonzero;stroke:none"
         d="m 198.417,352.011 0.581,0 0,-17.734 -0.581,0 0,17.734 z" />
      <path
         inkscape:connector-curvature="0"
         id="path464"
         style="fill:#393536;fill-opacity:1;fill-rule:nonzero;stroke:none"
         d="m 262.237,334.272 -25.421,0 0,0.578 25.421,0 0,-0.578 z" />
      <g
         transform="translate(228.3281,334.6846)"
         id="g466">
        <path
           inkscape:connector-curvature="0"
           id="path468"
           style="fill:#393536;fill-opacity:1;fill-rule:nonzero;stroke:none"
           d="m 0,0 c 0,0.258 0.183,0.467 0.438,0.467 0.239,0 0.391,-0.182 0.391,-0.418 0,-0.258 -0.183,-0.461 -0.445,-0.461 C 0.152,-0.412 0,-0.23 0,0" />
      </g>
      <g
         transform="translate(229.7979,334.6846)"
         id="g470">
        <path
           inkscape:connector-curvature="0"
           id="path472"
           style="fill:#393536;fill-opacity:1;fill-rule:nonzero;stroke:none"
           d="m 0,0 c 0,0.258 0.183,0.467 0.438,0.467 0.239,0 0.391,-0.182 0.391,-0.418 0,-0.258 -0.182,-0.461 -0.445,-0.461 C 0.153,-0.412 0,-0.23 0,0" />
      </g>
      <g
         transform="translate(231.2686,334.6846)"
         id="g474">
        <path
           inkscape:connector-curvature="0"
           id="path476"
           style="fill:#393536;fill-opacity:1;fill-rule:nonzero;stroke:none"
           d="m 0,0 c 0,0.258 0.182,0.467 0.438,0.467 0.238,0 0.39,-0.182 0.39,-0.418 0,-0.258 -0.182,-0.461 -0.445,-0.461 C 0.152,-0.412 0,-0.23 0,0" />
      </g>
      <g
         transform="translate(220.0103,343.1396)"
         id="g478">
        <path
           inkscape:connector-curvature="0"
           id="path480"
           style="fill:#37a482;fill-opacity:1;fill-rule:nonzero;stroke:none"
           d="m 0,0 c 0,-0.523 -0.424,-0.947 -0.947,-0.947 -0.527,0 -0.95,0.424 -0.95,0.947 0,0.523 0.423,0.949 0.95,0.949 C -0.424,0.949 0,0.523 0,0" />
      </g>
      <g
         transform="translate(216.0415,345.8506)"
         id="g482">
        <path
           inkscape:connector-curvature="0"
           id="path484"
           style="fill:#37a482;fill-opacity:1;fill-rule:nonzero;stroke:none"
           d="m 0,0 c 0,-0.523 -0.425,-0.947 -0.947,-0.947 -0.524,0 -0.949,0.424 -0.949,0.947 0,0.521 0.425,0.947 0.949,0.947 C -0.425,0.947 0,0.521 0,0" />
      </g>
      <g
         transform="translate(208.1079,340.4307)"
         id="g486">
        <path
           inkscape:connector-curvature="0"
           id="path488"
           style="fill:#37a482;fill-opacity:1;fill-rule:nonzero;stroke:none"
           d="m 0,0 c 0,-0.523 -0.424,-0.949 -0.947,-0.949 -0.525,0 -0.948,0.426 -0.948,0.949 0,0.521 0.423,0.947 0.948,0.947 C -0.424,0.947 0,0.521 0,0" />
      </g>
      <g
         transform="translate(204.1411,347.2041)"
         id="g490">
        <path
           inkscape:connector-curvature="0"
           id="path492"
           style="fill:#37a482;fill-opacity:1;fill-rule:nonzero;stroke:none"
           d="m 0,0 c 0,-0.521 -0.426,-0.947 -0.948,-0.947 -0.524,0 -0.949,0.426 -0.949,0.947 0,0.523 0.425,0.949 0.949,0.949 C -0.426,0.949 0,0.523 0,0" />
      </g>
      <g
         transform="translate(212.0767,344.4951)"
         id="g494">
        <path
           inkscape:connector-curvature="0"
           id="path496"
           style="fill:#37a482;fill-opacity:1;fill-rule:nonzero;stroke:none"
           d="m 0,0 c 0,-0.525 -0.426,-0.947 -0.949,-0.947 -0.527,0 -0.948,0.422 -0.948,0.947 0,0.523 0.421,0.949 0.948,0.949 C -0.426,0.949 0,0.523 0,0" />
      </g>
      <g
         id="g498">
        <g
           id="g500" />
        <g
           id="g510">
          <g
             style="opacity:0.30000299"
             id="g512"
             clip-path="url(#clipPath502)">
            <g
               id="g514">
              <g
                 id="g516"
                 clip-path="url(#clipPath506)">
                <g
                   id="g518"
                   transform="translate(253.6729,345.8506)">
                  <path
                     inkscape:connector-curvature="0"
                     id="path520"
                     style="fill:#37a482;fill-opacity:1;fill-rule:nonzero;stroke:none"
                     d="m 0,0 c 0,-0.523 -0.427,-0.947 -0.948,-0.947 -0.524,0 -0.948,0.424 -0.948,0.947 0,0.521 0.424,0.947 0.948,0.947 C -0.427,0.947 0,0.521 0,0" />
                </g>
              </g>
            </g>
          </g>
        </g>
      </g>
      <g
         id="g522">
        <g
           id="g524" />
        <g
           id="g534">
          <g
             style="opacity:0.30000299"
             id="g536"
             clip-path="url(#clipPath526)">
            <g
               id="g538">
              <g
                 id="g540"
                 clip-path="url(#clipPath530)">
                <g
                   id="g542"
                   transform="translate(245.7393,340.4307)">
                  <path
                     inkscape:connector-curvature="0"
                     id="path544"
                     style="fill:#37a482;fill-opacity:1;fill-rule:nonzero;stroke:none"
                     d="m 0,0 c 0,-0.523 -0.425,-0.949 -0.948,-0.949 -0.526,0 -0.948,0.426 -0.948,0.949 0,0.521 0.422,0.947 0.948,0.947 C -0.425,0.947 0,0.521 0,0" />
                </g>
              </g>
            </g>
          </g>
        </g>
      </g>
      <g
         id="g546">
        <g
           id="g548" />
        <g
           id="g558">
          <g
             style="opacity:0.30000299"
             id="g560"
             clip-path="url(#clipPath550)">
            <g
               id="g562">
              <g
                 id="g564"
                 clip-path="url(#clipPath554)">
                <g
                   id="g566"
                   transform="translate(241.6074,347.2041)">
                  <path
                     inkscape:connector-curvature="0"
                     id="path568"
                     style="fill:#37a482;fill-opacity:1;fill-rule:nonzero;stroke:none"
                     d="m 0,0 c 0,-0.521 -0.426,-0.947 -0.947,-0.947 -0.525,0 -0.95,0.426 -0.95,0.947 0,0.523 0.425,0.949 0.95,0.949 C -0.426,0.949 0,0.523 0,0" />
                </g>
              </g>
            </g>
          </g>
        </g>
      </g>
      <g
         transform="translate(249.707,352.1484)"
         id="g570">
        <path
           inkscape:connector-curvature="0"
           id="path572"
           style="fill:#37a482;fill-opacity:1;fill-rule:nonzero;stroke:none"
           d="m 0,0 c 0,-0.527 -0.427,-0.947 -0.948,-0.947 -0.528,0 -0.948,0.42 -0.948,0.947 0,0.523 0.42,0.947 0.948,0.947 C -0.427,0.947 0,0.523 0,0" />
      </g>
      <g
         transform="translate(241.6074,340.4287)"
         id="g574">
        <path
           inkscape:connector-curvature="0"
           id="path576"
           style="fill:#37a482;fill-opacity:1;fill-rule:nonzero;stroke:none"
           d="m 0,0 c 0,-0.521 -0.426,-0.947 -0.947,-0.947 -0.525,0 -0.95,0.426 -0.95,0.947 0,0.523 0.425,0.949 0.95,0.949 C -0.426,0.949 0,0.523 0,0" />
      </g>
      <g
         transform="translate(241.3018,342.7666)"
         id="g578">
        <path
           inkscape:connector-curvature="0"
           id="path580"
           style="fill:#d3d2d2;fill-opacity:1;fill-rule:nonzero;stroke:none"
           d="M 0,0 -1.283,0 -0.644,-1.113 0,0 Z" />
      </g>
      <g
         transform="translate(245.7393,345.3096)"
         id="g582">
        <path
           inkscape:connector-curvature="0"
           id="path584"
           style="fill:#37a482;fill-opacity:1;fill-rule:nonzero;stroke:none"
           d="m 0,0 c 0,-0.523 -0.425,-0.947 -0.948,-0.947 -0.526,0 -0.948,0.424 -0.948,0.947 0,0.521 0.422,0.947 0.948,0.947 C -0.425,0.947 0,0.521 0,0" />
      </g>
      <g
         transform="translate(248.7598,345.6143)"
         id="g586">
        <path
           inkscape:connector-curvature="0"
           id="path588"
           style="fill:none;stroke:#d3d2d2;stroke-width:0.30000001;stroke-linecap:butt;stroke-linejoin:miter;stroke-miterlimit:10;stroke-dasharray:none;stroke-opacity:1"
           d="M 0,0 0,1.627" />
      </g>
      <g
         transform="translate(248.1172,346.8467)"
         id="g590">
        <path
           inkscape:connector-curvature="0"
           id="path592"
           style="fill:#d3d2d2;fill-opacity:1;fill-rule:nonzero;stroke:none"
           d="M 0,0 1.282,0 0.643,1.113 0,0 Z" />
      </g>
      <g
         id="g594">
        <g
           id="g596" />
        <g
           id="g606">
          <g
             style="opacity:0.30000299"
             id="g608"
             clip-path="url(#clipPath598)">
            <g
               id="g610">
              <g
                 id="g612"
                 clip-path="url(#clipPath602)">
                <g
                   id="g614"
                   transform="translate(249.7061,344.3916)">
                  <path
                     inkscape:connector-curvature="0"
                     id="path616"
                     style="fill:#37a482;fill-opacity:1;fill-rule:nonzero;stroke:none"
                     d="m 0,0 c 0,-0.525 -0.425,-0.949 -0.947,-0.949 -0.526,0 -0.949,0.424 -0.949,0.949 0,0.521 0.423,0.947 0.949,0.947 C -0.425,0.947 0,0.521 0,0" />
                </g>
              </g>
            </g>
          </g>
        </g>
      </g>
      <g
         transform="translate(252.7236,344.5615)"
         id="g618">
        <path
           inkscape:connector-curvature="0"
           id="path620"
           style="fill:none;stroke:#d3d2d2;stroke-width:0.30000001;stroke-linecap:butt;stroke-linejoin:miter;stroke-miterlimit:10;stroke-dasharray:none;stroke-opacity:1"
           d="M 0,0 0,-5.764" />
      </g>
      <g
         transform="translate(253.6729,336.8154)"
         id="g622">
        <path
           inkscape:connector-curvature="0"
           id="path624"
           style="fill:#37a482;fill-opacity:1;fill-rule:nonzero;stroke:none"
           d="m 0,0 c 0,-0.521 -0.427,-0.947 -0.947,-0.947 -0.525,0 -0.949,0.426 -0.949,0.947 0,0.523 0.424,0.949 0.949,0.949 C -0.427,0.949 0,0.523 0,0" />
      </g>
      <g
         transform="translate(253.3652,339.1514)"
         id="g626">
        <path
           inkscape:connector-curvature="0"
           id="path628"
           style="fill:#d3d2d2;fill-opacity:1;fill-rule:nonzero;stroke:none"
           d="M 0,0 -1.281,0 -0.642,-1.111 0,0 Z" />
      </g>
      <g
         transform="translate(257.6406,347.2041)"
         id="g630">
        <path
           inkscape:connector-curvature="0"
           id="path632"
           style="fill:#37a482;fill-opacity:1;fill-rule:nonzero;stroke:none"
           d="m 0,0 c 0,-0.525 -0.427,-0.947 -0.949,-0.947 -0.528,0 -0.948,0.422 -0.948,0.947 0,0.523 0.42,0.949 0.948,0.949 C -0.427,0.949 0,0.523 0,0" />
      </g>
      <g
         transform="translate(256.6934,344.3623)"
         id="g634">
        <path
           inkscape:connector-curvature="0"
           id="path636"
           style="fill:none;stroke:#d3d2d2;stroke-width:0.30000001;stroke-linecap:butt;stroke-linejoin:miter;stroke-miterlimit:10;stroke-dasharray:none;stroke-opacity:1"
           d="M 0,0 0,0.998" />
      </g>
      <g
         transform="translate(256.0508,344.9678)"
         id="g638">
        <path
           inkscape:connector-curvature="0"
           id="path640"
           style="fill:#d3d2d2;fill-opacity:1;fill-rule:nonzero;stroke:none"
           d="M 0,0 1.282,0 0.643,1.111 0,0 Z" />
      </g>
      <g
         id="g642">
        <g
           id="g644" />
        <g
           id="g654">
          <g
             style="opacity:0.30000299"
             id="g656"
             clip-path="url(#clipPath646)">
            <g
               id="g658">
              <g
                 id="g660"
                 clip-path="url(#clipPath650)">
                <g
                   id="g662"
                   transform="translate(257.6396,343.2373)">
                  <path
                     inkscape:connector-curvature="0"
                     id="path664"
                     style="fill:#37a482;fill-opacity:1;fill-rule:nonzero;stroke:none"
                     d="m 0,0 c 0,-0.523 -0.425,-0.947 -0.948,-0.947 -0.525,0 -0.948,0.424 -0.948,0.947 0,0.521 0.423,0.949 0.948,0.949 C -0.425,0.949 0,0.521 0,0" />
                </g>
              </g>
            </g>
          </g>
        </g>
      </g>
      <g
         transform="translate(230.627,341.7393)"
         id="g666">
        <path
           inkscape:connector-curvature="0"
           id="path668"
           style="fill:#393536;fill-opacity:1;fill-rule:nonzero;stroke:none"
           d="m 0,0 c -1.297,0 -2.35,1.051 -2.35,2.35 0,1.295 1.053,2.347 2.35,2.347 1.298,0 2.35,-1.052 2.35,-2.347 C 2.35,1.051 1.298,0 0,0 m 1.358,3.51 c 0.051,-0.051 0.051,-0.133 0,-0.184 L 0.507,2.473 C 0.516,2.434 0.521,2.391 0.521,2.346 0.521,2.059 0.288,1.824 0,1.824 c -0.194,0 -0.362,0.133 -0.452,0.264 l -0.722,0 c -0.071,0 -0.132,0.066 -0.132,0.137 l 0,0.248 c 0,0.07 0.061,0.136 0.132,0.136 l 0.722,0 c 0.09,0.131 0.258,0.264 0.452,0.264 0.053,0 0.101,-0.012 0.147,-0.025 l 0.845,0.843 c 0.051,0.051 0.134,0.051 0.186,0 L 1.358,3.51 Z M 0,5.48 c -1.727,0 -3.131,-1.406 -3.131,-3.13 0,-1.727 1.404,-3.133 3.131,-3.133 1.727,0 3.132,1.406 3.132,3.133 0,1.724 -1.405,3.13 -3.132,3.13" />
      </g>
      <path
         inkscape:connector-curvature="0"
         id="path670"
         style="fill:#393536;fill-opacity:1;fill-rule:nonzero;stroke:none"
         d="m 224.004,272.961 -25.42,0 0,0.58 25.42,0 0,-0.58 z" />
      <path
         inkscape:connector-curvature="0"
         id="path672"
         style="fill:#393536;fill-opacity:1;fill-rule:nonzero;stroke:none"
         d="m 198.584,290.699 0.58,0 0,-17.734 -0.58,0 0,17.734 z" />
      <g
         transform="translate(220.1768,281.8281)"
         id="g674">
        <path
           inkscape:connector-curvature="0"
           id="path676"
           style="fill:#393536;fill-opacity:1;fill-rule:nonzero;stroke:none"
           d="m 0,0 c 0,-0.523 -0.425,-0.947 -0.947,-0.947 -0.527,0 -0.95,0.424 -0.95,0.947 0,0.523 0.423,0.949 0.95,0.949 C -0.425,0.949 0,0.523 0,0" />
      </g>
      <g
         transform="translate(216.208,284.5391)"
         id="g678">
        <path
           inkscape:connector-curvature="0"
           id="path680"
           style="fill:#393536;fill-opacity:1;fill-rule:nonzero;stroke:none"
           d="m 0,0 c 0,-0.523 -0.425,-0.947 -0.948,-0.947 -0.523,0 -0.948,0.424 -0.948,0.947 0,0.521 0.425,0.947 0.948,0.947 C -0.425,0.947 0,0.521 0,0" />
      </g>
      <g
         transform="translate(208.2744,279.1191)"
         id="g682">
        <path
           inkscape:connector-curvature="0"
           id="path684"
           style="fill:#393536;fill-opacity:1;fill-rule:nonzero;stroke:none"
           d="m 0,0 c 0,-0.523 -0.424,-0.949 -0.948,-0.949 -0.524,0 -0.947,0.426 -0.947,0.949 0,0.521 0.423,0.947 0.947,0.947 C -0.424,0.947 0,0.521 0,0" />
      </g>
      <g
         transform="translate(204.3076,285.8926)"
         id="g686"
         style="color:#000000;clip-rule:nonzero;display:inline;overflow:visible;visibility:visible;opacity:1;isolation:auto;mix-blend-mode:normal;color-interpolation:sRGB;color-interpolation-filters:linearRGB;solid-color:#000000;solid-opacity:1;fill:#ff5555;fill-opacity:1;fill-rule:nonzero;stroke:none;stroke-width:0.8px;stroke-linecap:butt;stroke-linejoin:miter;stroke-miterlimit:4;stroke-dasharray:none;stroke-dashoffset:0;stroke-opacity:1;filter-blend-mode:normal;filter-gaussianBlur-deviation:0;color-rendering:auto;image-rendering:auto;shape-rendering:auto;text-rendering:auto;enable-background:accumulate">
        <path
           inkscape:connector-curvature="0"
           id="path688"
           style="fill:#ff5555;fill-opacity:1;fill-rule:nonzero;stroke:none;color:#000000;clip-rule:nonzero;display:inline;overflow:visible;visibility:visible;isolation:auto;mix-blend-mode:normal;color-interpolation:sRGB;color-interpolation-filters:linearRGB;solid-color:#000000;solid-opacity:1;stroke-width:0.8px;stroke-linecap:butt;stroke-linejoin:miter;stroke-miterlimit:4;stroke-dasharray:none;stroke-dashoffset:0;stroke-opacity:1;filter-blend-mode:normal;filter-gaussianBlur-deviation:0;color-rendering:auto;image-rendering:auto;shape-rendering:auto;text-rendering:auto;enable-background:accumulate"
           d="m 0,0 c 0,-0.521 -0.426,-0.947 -0.948,-0.947 -0.524,0 -0.949,0.426 -0.949,0.947 0,0.523 0.425,0.949 0.949,0.949 C -0.426,0.949 0,0.523 0,0" />
      </g>
      <g
         transform="translate(212.2432,283.1836)"
         id="g690">
        <path
           inkscape:connector-curvature="0"
           id="path692"
           style="fill:#393536;fill-opacity:1;fill-rule:nonzero;stroke:none"
           d="m 0,0 c 0,-0.525 -0.427,-0.947 -0.949,-0.947 -0.527,0 -0.948,0.422 -0.948,0.947 0,0.523 0.421,0.949 0.948,0.949 C -0.427,0.949 0,0.523 0,0" />
      </g>
      <g
         transform="translate(203.3574,288.0391)"
         id="g694"
         style="color:#000000;clip-rule:nonzero;display:inline;overflow:visible;visibility:visible;opacity:1;isolation:auto;mix-blend-mode:normal;color-interpolation:sRGB;color-interpolation-filters:linearRGB;solid-color:#000000;solid-opacity:1;fill:#ff5555;fill-opacity:1;fill-rule:nonzero;stroke:none;stroke-width:0.8px;stroke-linecap:butt;stroke-linejoin:miter;stroke-miterlimit:4;stroke-dasharray:none;stroke-dashoffset:0;stroke-opacity:1;filter-blend-mode:normal;filter-gaussianBlur-deviation:0;color-rendering:auto;image-rendering:auto;shape-rendering:auto;text-rendering:auto;enable-background:accumulate">
        <path
           inkscape:connector-curvature="0"
           id="path696"
           style="fill:#ff5555;fill-opacity:1;fill-rule:nonzero;stroke:none;color:#000000;clip-rule:nonzero;display:inline;overflow:visible;visibility:visible;isolation:auto;mix-blend-mode:normal;color-interpolation:sRGB;color-interpolation-filters:linearRGB;solid-color:#000000;solid-opacity:1;stroke-width:0.8px;stroke-linecap:butt;stroke-linejoin:miter;stroke-miterlimit:4;stroke-dasharray:none;stroke-dashoffset:0;stroke-opacity:1;filter-blend-mode:normal;filter-gaussianBlur-deviation:0;color-rendering:auto;image-rendering:auto;shape-rendering:auto;text-rendering:auto;enable-background:accumulate"
           d="m 0,0 c -1.184,0 -2.146,-0.963 -2.146,-2.146 0,-1.182 0.962,-2.147 2.146,-2.147 1.184,0 2.146,0.965 2.146,2.147 C 2.146,-0.963 1.184,0 0,0 m 0,-4.6 c -1.353,0 -2.452,1.102 -2.452,2.454 0,1.353 1.099,2.453 2.452,2.453 1.353,0 2.453,-1.1 2.453,-2.453 C 2.453,-3.498 1.353,-4.6 0,-4.6" />
      </g>
      <path
         inkscape:connector-curvature="0"
         id="path698"
         style="fill:#393536;fill-opacity:1;fill-rule:nonzero;stroke:none"
         d="m 221.237,224.745 -21.889,0 0,0.498 21.889,0 0,-0.498 z" />
      <g
         transform="translate(217.9414,234.3818)"
         id="g700">
        <path
           inkscape:connector-curvature="0"
           id="path702"
           style="fill:#393536;fill-opacity:1;fill-rule:nonzero;stroke:none"
           d="m 0,0 c 0,-0.449 -0.365,-0.816 -0.815,-0.816 -0.454,0 -0.819,0.367 -0.819,0.816 0,0.451 0.365,0.816 0.819,0.816 C -0.365,0.816 0,0.451 0,0" />
      </g>
      <g
         transform="translate(214.5244,237.7158)"
         id="g704">
        <path
           inkscape:connector-curvature="0"
           id="path706"
           style="fill:#393536;fill-opacity:1;fill-rule:nonzero;stroke:none"
           d="m 0,0 c 0,-0.449 -0.366,-0.816 -0.816,-0.816 -0.451,0 -0.817,0.367 -0.817,0.816 0,0.449 0.366,0.816 0.817,0.816 C -0.366,0.816 0,0.449 0,0" />
      </g>
      <g
         transform="translate(207.6934,229.0459)"
         id="g708">
        <path
           inkscape:connector-curvature="0"
           id="path710"
           style="fill:#393536;fill-opacity:1;fill-rule:nonzero;stroke:none"
           d="m 0,0 c 0,-0.451 -0.365,-0.816 -0.816,-0.816 -0.452,0 -0.816,0.365 -0.816,0.816 0,0.449 0.364,0.816 0.816,0.816 C -0.365,0.816 0,0.449 0,0" />
      </g>
      <g
         transform="translate(204.2773,237.8818)"
         id="g712">
        <path
           inkscape:connector-curvature="0"
           id="path714"
           style="fill:#393536;fill-opacity:1;fill-rule:nonzero;stroke:none"
           d="m 0,0 c 0,-0.449 -0.366,-0.814 -0.816,-0.814 -0.452,0 -0.818,0.365 -0.818,0.814 0,0.451 0.366,0.816 0.818,0.816 C -0.366,0.816 0,0.451 0,0" />
      </g>
      <g
         transform="translate(211.1104,235.5498)"
         id="g716">
        <path
           inkscape:connector-curvature="0"
           id="path718"
           style="fill:#393536;fill-opacity:1;fill-rule:nonzero;stroke:none"
           d="m 0,0 c 0,-0.453 -0.367,-0.816 -0.817,-0.816 -0.454,0 -0.817,0.363 -0.817,0.816 0,0.449 0.363,0.816 0.817,0.816 C -0.367,0.816 0,0.449 0,0" />
      </g>
      <g
         transform="translate(221.9307,230.6904)"
         id="g720">
        <path
           inkscape:connector-curvature="0"
           id="path722"
           style="fill:#37a482;fill-opacity:1;fill-rule:nonzero;stroke:none"
           d="M 0,0 -1.99,0 0.787,2.875 -1.99,5.75 0,5.75 2.741,2.883 2.741,2.857 0,0 Z" />
      </g>
      <g
         transform="translate(200.2881,236.4404)"
         id="g724">
        <path
           inkscape:connector-curvature="0"
           id="path726"
           style="fill:#37a482;fill-opacity:1;fill-rule:nonzero;stroke:none"
           d="m 0,0 1.991,0 -2.777,-2.873 2.777,-2.877 -1.991,0 -2.738,2.869 0,0.024 L 0,0 Z" />
      </g>
    </g>
    <text
       xml:space="preserve"
       style="font-style:normal;font-weight:normal;font-size:22.5px;line-height:125%;font-family:sans-serif;letter-spacing:0px;word-spacing:0px;fill:#000000;fill-opacity:1;stroke:none;stroke-width:1px;stroke-linecap:butt;stroke-linejoin:miter;stroke-opacity:1;"
       x="412.5"
       y="407.36221"
       id="text6096"
       sodipodi:linespacing="125%"><tspan
         sodipodi:role="line"
         id="tspan6098"
         x="412.5"
         y="407.36221" /></text>
    <text
       xml:space="preserve"
       style="font-style:normal;font-variant:normal;font-weight:bold;font-stretch:normal;font-size:15px;line-height:125%;font-family:'PT Sans Caption';-inkscape-font-specification:'PT Sans Caption Bold';letter-spacing:0px;word-spacing:0px;fill:#000000;fill-opacity:1;stroke:none;stroke-width:1px;stroke-linecap:butt;stroke-linejoin:miter;stroke-opacity:1"
       x="412.14285"
       y="406.29077"
       id="text6100"
       sodipodi:linespacing="125%"><tspan
         sodipodi:role="line"
         id="tspan6102"
         x="412.14285"
         y="406.29077">змінити</tspan></text>
    <text
       xml:space="preserve"
       style="font-style:normal;font-variant:normal;font-weight:bold;font-stretch:normal;font-size:15px;line-height:125%;font-family:'PT Sans Caption';-inkscape-font-specification:'PT Sans Caption Bold';letter-spacing:0px;word-spacing:0px;fill:#ff5555;fill-opacity:1;stroke:none;stroke-width:1px;stroke-linecap:butt;stroke-linejoin:miter;stroke-opacity:1"
       x="413.2323"
       y="483.88327"
       id="text6100-9"
       sodipodi:linespacing="125%"><tspan
         sodipodi:role="line"
         id="tspan6102-2"
         x="413.2323"
         y="483.88327">підкреслити</tspan></text>
    <text
       xml:space="preserve"
       style="font-style:normal;font-variant:normal;font-weight:bold;font-stretch:normal;font-size:15px;line-height:125%;font-family:'PT Sans Caption';-inkscape-font-specification:'PT Sans Caption Bold';letter-spacing:0px;word-spacing:0px;fill:#000000;fill-opacity:1;stroke:none;stroke-width:1px;stroke-linecap:butt;stroke-linejoin:miter;stroke-opacity:1"
       x="413.33353"
       y="553.49512"
       id="text6100-9-5"
       sodipodi:linespacing="125%"><tspan
         sodipodi:role="line"
         id="tspan6102-2-4"
         x="413.33353"
         y="553.49512">перейти</tspan></text>
    <text
       xml:space="preserve"
       style="font-style:normal;font-weight:normal;font-size:45px;line-height:125%;font-family:sans-serif;letter-spacing:0px;word-spacing:0px;fill:#000000;fill-opacity:1;stroke:none;stroke-width:1px;stroke-linecap:butt;stroke-linejoin:miter;stroke-opacity:1"
       x="391.13208"
       y="359.49908"
       id="text6142"
       sodipodi:linespacing="125%"><tspan
         sodipodi:role="line"
         id="tspan6144"
         x="391.13208"
         y="359.49908"
         style="font-style:normal;font-variant:normal;font-weight:bold;font-stretch:normal;font-size:20px;font-family:sans-serif;-inkscape-font-specification:'sans-serif Bold'">Маніпуляція</tspan></text>
  </g>
</svg>
