<?xml version="1.0" encoding="UTF-8" standalone="no"?>
<!-- Created with Inkscape (http://www.inkscape.org/) -->

<svg
   xmlns:dc="http://purl.org/dc/elements/1.1/"
   xmlns:cc="http://creativecommons.org/ns#"
   xmlns:rdf="http://www.w3.org/1999/02/22-rdf-syntax-ns#"
   xmlns:svg="http://www.w3.org/2000/svg"
   xmlns="http://www.w3.org/2000/svg"
   xmlns:sodipodi="http://sodipodi.sourceforge.net/DTD/sodipodi-0.dtd"
   xmlns:inkscape="http://www.inkscape.org/namespaces/inkscape"
   id="svg2"
   version="1.1"
   inkscape:version="0.91 r13725"
   xml:space="preserve"
   width="202.5"
   height="134.58875"
   viewBox="0 0 202.5 134.58875"
   sodipodi:docname="strat1.svg"><metadata
     id="metadata8"><rdf:RDF><cc:Work
         rdf:about=""><dc:format>image/svg+xml</dc:format><dc:type
           rdf:resource="http://purl.org/dc/dcmitype/StillImage" /><dc:title></dc:title></cc:Work></rdf:RDF></metadata><defs
     id="defs6"><clipPath
       clipPathUnits="userSpaceOnUse"
       id="clipPath16"><path
         d="m 0,0 162,0 0,107.671 -162,0 L 0,0 Z"
         id="path18"
         inkscape:connector-curvature="0" /></clipPath><clipPath
       clipPathUnits="userSpaceOnUse"
       id="clipPath3561"><path
         d="m 0,107.671 162,0 L 162,0 0,0 0,107.671 Z"
         id="path3563"
         inkscape:connector-curvature="0" /></clipPath><clipPath
       clipPathUnits="userSpaceOnUse"
       id="clipPath3581"><path
         d="m 0,107.671 162,0 L 162,0 0,0 0,107.671 Z"
         id="path3583"
         inkscape:connector-curvature="0" /></clipPath></defs><sodipodi:namedview
     pagecolor="#ffffff"
     bordercolor="#666666"
     borderopacity="1"
     objecttolerance="10"
     gridtolerance="10"
     guidetolerance="10"
     inkscape:pageopacity="0"
     inkscape:pageshadow="2"
     inkscape:window-width="1440"
     inkscape:window-height="851"
     id="namedview4"
     showgrid="false"
     inkscape:zoom="1.7333333"
     inkscape:cx="102.40385"
     inkscape:cy="126.86451"
     inkscape:window-x="0"
     inkscape:window-y="25"
     inkscape:window-maximized="1"
     inkscape:current-layer="g10" /><g
     id="g10"
     inkscape:groupmode="layer"
     inkscape:label="fig3.5b"
     transform="matrix(1.25,0,0,-1.25,0,134.58875)"><rect
       style="color:#000000;clip-rule:nonzero;display:inline;overflow:visible;visibility:visible;opacity:1;isolation:auto;mix-blend-mode:normal;color-interpolation:sRGB;color-interpolation-filters:linearRGB;solid-color:#000000;solid-opacity:1;fill:#ffffff;fill-opacity:1;fill-rule:nonzero;stroke:none;stroke-width:1px;stroke-linecap:butt;stroke-linejoin:miter;stroke-miterlimit:4;stroke-dasharray:none;stroke-dashoffset:0;stroke-opacity:1;color-rendering:auto;image-rendering:auto;shape-rendering:auto;text-rendering:auto;enable-background:accumulate"
       id="rect3436"
       width="290.76923"
       height="333.69229"
       x="-61.846153"
       y="-290.76923"
       transform="scale(1,-1)"
       inkscape:export-filename="/home/dvrnd/tmp/djcourse/vis/lections/figures/week05/fig_00_01.png"
       inkscape:export-xdpi="300"
       inkscape:export-ydpi="300" /><g
       id="g12"><g
         id="g14"
         clip-path="url(#clipPath16)"><g
           id="g20"
           transform="translate(20.4199,46.3984)"><path
             d="m 0,0 c -0.264,0 -0.527,0.104 -0.725,0.309 -0.38,0.4 -0.365,1.033 0.034,1.414 0.933,0.888 22.984,21.777 36.134,22.009 0.08,0 0.161,0.002 0.241,0.002 6.283,0 12.199,-4.326 17.427,-8.148 4.127,-3.016 8.024,-5.867 10.973,-5.652 2.445,0.179 4.455,3.08 6.58,6.152 2.432,3.512 4.947,7.143 8.703,7.383 2.541,0.166 5.319,-1.864 8.035,-3.821 1.905,-1.373 4.078,-2.925 5.143,-2.82 0.543,0.039 1.041,-0.346 1.094,-0.896 0.054,-0.549 -0.346,-1.039 -0.897,-1.094 -1.834,-0.188 -3.998,1.381 -6.508,3.187 -2.318,1.67 -4.957,3.588 -6.738,3.448 C 76.703,21.295 74.471,18.066 72.309,14.947 70.01,11.625 67.631,8.189 64.23,7.939 60.533,7.668 56.555,10.59 51.93,13.973 46.891,17.656 41.186,21.814 35.479,21.732 23.105,21.514 0.912,0.488 0.689,0.275 0.496,0.092 0.248,0 0,0"
             style="fill:#656968;fill-opacity:1;fill-rule:nonzero;stroke:none"
             id="path22"
             inkscape:connector-curvature="0" /></g><g
           id="g24"
           transform="translate(123.084,46.4395)"><path
             d="m 0,0 -103.676,0 0,49.73 0.914,0 0,-48.814 L 0,0.916 0,0 Z"
             style="fill:#4f4c4d;fill-opacity:1;fill-rule:nonzero;stroke:none"
             id="path26"
             inkscape:connector-curvature="0" /></g><path
           d="m 19.865,46.439 -1.848,0 0,0.916 1.848,0 0,-0.916 z"
           style="fill:#4f4c4d;fill-opacity:1;fill-rule:nonzero;stroke:none"
           id="path28"
           inkscape:connector-curvature="0" /><path
           d="m 19.865,61.316 -1.848,0 0,0.916 1.848,0 0,-0.916 z"
           style="fill:#4f4c4d;fill-opacity:1;fill-rule:nonzero;stroke:none"
           id="path30"
           inkscape:connector-curvature="0" /><path
           d="m 19.865,75.594 -1.848,0 0,0.914 1.848,0 0,-0.914 z"
           style="fill:#4f4c4d;fill-opacity:1;fill-rule:nonzero;stroke:none"
           id="path32"
           inkscape:connector-curvature="0" /><path
           d="m 19.865,88.961 -1.848,0 0,0.916 1.848,0 0,-0.916 z"
           style="fill:#4f4c4d;fill-opacity:1;fill-rule:nonzero;stroke:none"
           id="path34"
           inkscape:connector-curvature="0" /><path
           d="m 85.492,45.051 -0.914,0 0,1.849 0.914,0 0,-1.849 z"
           style="fill:#4f4c4d;fill-opacity:1;fill-rule:nonzero;stroke:none"
           id="path36"
           inkscape:connector-curvature="0" /><path
           d="m 70.615,45.051 -0.914,0 0,1.849 0.914,0 0,-1.849 z"
           style="fill:#4f4c4d;fill-opacity:1;fill-rule:nonzero;stroke:none"
           id="path38"
           inkscape:connector-curvature="0" /><path
           d="m 56.338,45.051 -0.914,0 0,1.849 0.914,0 0,-1.849 z"
           style="fill:#4f4c4d;fill-opacity:1;fill-rule:nonzero;stroke:none"
           id="path40"
           inkscape:connector-curvature="0" /><path
           d="m 42.971,45.051 -0.914,0 0,1.849 0.914,0 0,-1.849 z"
           style="fill:#4f4c4d;fill-opacity:1;fill-rule:nonzero;stroke:none"
           id="path42"
           inkscape:connector-curvature="0" /><path
           d="m 29.205,45.051 -0.916,0 0,1.849 0.916,0 0,-1.849 z"
           style="fill:#4f4c4d;fill-opacity:1;fill-rule:nonzero;stroke:none"
           id="path44"
           inkscape:connector-curvature="0" /><path
           d="m 113.064,45.051 -0.916,0 0,1.849 0.916,0 0,-1.849 z"
           style="fill:#4f4c4d;fill-opacity:1;fill-rule:nonzero;stroke:none"
           id="path46"
           inkscape:connector-curvature="0" /><path
           d="m 99.299,45.051 -0.916,0 0,1.849 0.916,0 0,-1.849 z"
           style="fill:#4f4c4d;fill-opacity:1;fill-rule:nonzero;stroke:none"
           id="path48"
           inkscape:connector-curvature="0" /><path
           d="m 19.865,54.135 -1.848,0 0,0.914 1.848,0 0,-0.914 z"
           style="fill:#4f4c4d;fill-opacity:1;fill-rule:nonzero;stroke:none"
           id="path50"
           inkscape:connector-curvature="0" /><path
           d="m 19.865,68.412 -1.848,0 0,0.914 1.848,0 0,-0.914 z"
           style="fill:#4f4c4d;fill-opacity:1;fill-rule:nonzero;stroke:none"
           id="path52"
           inkscape:connector-curvature="0" /><path
           d="m 19.865,81.779 -1.848,0 0,0.914 1.848,0 0,-0.914 z"
           style="fill:#4f4c4d;fill-opacity:1;fill-rule:nonzero;stroke:none"
           id="path54"
           inkscape:connector-curvature="0" /><path
           d="m 19.865,95.256 -1.848,0 0,0.914 1.848,0 0,-0.914 z"
           style="fill:#4f4c4d;fill-opacity:1;fill-rule:nonzero;stroke:none"
           id="path56"
           inkscape:connector-curvature="0" /></g></g><text
       transform="scale(1,-1)"
       style="font-variant:normal;font-weight:normal;font-stretch:normal;font-size:10px;font-family:'Myriad Pro';-inkscape-font-specification:MyriadPro-Regular;writing-mode:lr-tb;fill:#d34620;fill-opacity:1;fill-rule:nonzero;stroke:none"
       id="text58"
       x="41.958801"
       y="-11.0625"><tspan
         sodipodi:role="line"
         id="tspan60"
         x="41.958801"
         y="-11.0625">2. Змінені дані</tspan></text>
<text
       transform="scale(1,-1)"
       style="font-style:italic;font-variant:normal;font-weight:normal;font-stretch:normal;font-size:8px;font-family:'Myriad Pro';-inkscape-font-specification:MyriadPro-It;writing-mode:lr-tb;fill:#0977b6;fill-opacity:1;fill-rule:nonzero;stroke:none"
       id="text62"
       x="41.699574"
       y="-78.582642"><tspan
         sodipodi:role="line"
         id="tspan72"
         x="41.699574"
         y="-78.582642">Баланс = дебет - кредіт</tspan></text>
<text
       transform="scale(1,-1)"
       style="font-variant:normal;font-weight:bold;font-stretch:normal;font-size:8px;font-family:'Myriad Pro';-inkscape-font-specification:MyriadPro-Bold;writing-mode:lr-tb;fill:#656968;fill-opacity:1;fill-rule:nonzero;stroke:none"
       id="text74"
       x="116.4842"
       y="-64.673103"><tspan
         sodipodi:role="line"
         id="tspan78"
         x="116.4842"
         y="-64.673103">баланс</tspan></text>
<g
       transform="translate(-3.6370546,131.69476)"
       id="g3695"><g
         id="g3557"><g
           clip-path="url(#clipPath3561)"
           id="g3559"><g
             transform="translate(21.3213,46.7383)"
             id="g3565"><path
               inkscape:connector-curvature="0"
               id="path3567"
               style="fill:#d34620;fill-opacity:1;fill-rule:nonzero;stroke:none"
               d="m 0,0 c -0.199,0 -0.402,0.059 -0.576,0.184 -0.451,0.32 -0.557,0.943 -0.238,1.394 1.703,2.402 25.22,28.693 41.357,29.668 4.051,0.244 11.576,0.262 17.623,0.275 3.891,0.01 7.563,0.018 8.252,0.096 1.791,0.205 3.658,3.262 5.465,6.219 2.287,3.746 4.652,7.619 8.055,8.426 1.849,0.439 3.685,0.463 5.072,0.439 2.344,-0.043 4.832,-0.16 7.394,-0.347 0.551,-0.04 0.965,-0.518 0.924,-1.069 -0.039,-0.551 -0.523,-0.959 -1.068,-0.926 -2.528,0.184 -4.979,0.299 -7.287,0.342 -1.276,0.026 -2.944,0.002 -4.573,-0.385 -2.591,-0.615 -4.834,-4.285 -6.81,-7.523 -2.152,-3.522 -4.184,-6.848 -6.945,-7.162 -0.764,-0.086 -3.573,-0.098 -8.473,-0.11 C 52.15,29.508 44.656,29.49 40.664,29.25 25.535,28.336 2.402,2.658 0.816,0.422 0.623,0.146 0.314,0 0,0" /></g><g
             transform="translate(21.0186,46.3477)"
             id="g3569"><path
               inkscape:connector-curvature="0"
               id="path3571"
               style="fill:#3f7ec0;fill-opacity:1;fill-rule:nonzero;stroke:none"
               d="m 0,0 c -0.326,0 -0.645,0.158 -0.836,0.451 -0.303,0.461 -0.176,1.082 0.287,1.385 0.414,0.271 10.184,6.666 13.899,7.654 3.312,0.879 12.904,0.065 13.31,0.03 2.828,-0.282 10.611,-0.838 12.776,-0.057 3.337,1.207 13.025,7.289 13.123,7.35 0.365,0.251 9.791,6.718 13.408,7.72 1.861,0.518 4.611,0.291 7.271,0.071 2.291,-0.188 4.66,-0.383 6.09,-0.059 2.713,0.615 10.113,5.473 12.736,7.291 0.456,0.316 1.077,0.203 1.391,-0.25 0.316,-0.455 0.203,-1.078 -0.25,-1.393 C 92.807,29.918 83.416,23.42 79.771,22.594 78.041,22.201 75.629,22.398 73.074,22.611 70.59,22.814 68.02,23.027 66.5,22.605 63.764,21.848 56.303,16.961 53.658,15.143 53.219,14.865 43.654,8.861 40.115,7.582 37.139,6.506 27.559,7.42 26.475,7.527 23.814,7.758 16.336,8.213 13.863,7.557 10.459,6.652 0.646,0.229 0.549,0.164 0.379,0.053 0.189,0 0,0" /></g></g></g><text
         y="-11.0625"
         x="40.770905"
         id="text3573"
         style="font-variant:normal;font-weight:normal;font-stretch:normal;font-size:10px;font-family:'Myriad Pro';-inkscape-font-specification:MyriadPro-Regular;writing-mode:lr-tb;fill:#d34620;fill-opacity:1;fill-rule:nonzero;stroke:none"
         transform="scale(1,-1)"><tspan
           y="-11.0625"
           x="40.770905"
           id="tspan3575"
           sodipodi:role="line">1. Початкові дані</tspan></text>
<g
         id="g3577"><g
           clip-path="url(#clipPath3581)"
           id="g3579"><g
             transform="translate(123.7803,46.4316)"
             id="g3585"><path
               inkscape:connector-curvature="0"
               id="path3587"
               style="fill:#4f4c4d;fill-opacity:1;fill-rule:nonzero;stroke:none"
               d="m 0,0 -103.676,0 0,49.729 0.914,0 0,-48.813 L 0,0.916 0,0 Z" /></g><path
             inkscape:connector-curvature="0"
             id="path3589"
             style="fill:#4f4c4d;fill-opacity:1;fill-rule:nonzero;stroke:none"
             d="m 20.562,46.432 -1.848,0 0,0.916 1.848,0 0,-0.916 z" /><path
             inkscape:connector-curvature="0"
             id="path3591"
             style="fill:#4f4c4d;fill-opacity:1;fill-rule:nonzero;stroke:none"
             d="m 20.562,61.309 -1.848,0 0,0.916 1.848,0 0,-0.916 z" /><path
             inkscape:connector-curvature="0"
             id="path3593"
             style="fill:#4f4c4d;fill-opacity:1;fill-rule:nonzero;stroke:none"
             d="m 20.562,75.586 -1.848,0 0,0.914 1.848,0 0,-0.914 z" /><path
             inkscape:connector-curvature="0"
             id="path3595"
             style="fill:#4f4c4d;fill-opacity:1;fill-rule:nonzero;stroke:none"
             d="m 20.562,88.953 -1.848,0 0,0.914 1.848,0 0,-0.914 z" /><path
             inkscape:connector-curvature="0"
             id="path3597"
             style="fill:#4f4c4d;fill-opacity:1;fill-rule:nonzero;stroke:none"
             d="m 86.188,45.041 -0.916,0 0,1.848 0.916,0 0,-1.848 z" /><path
             inkscape:connector-curvature="0"
             id="path3599"
             style="fill:#4f4c4d;fill-opacity:1;fill-rule:nonzero;stroke:none"
             d="m 71.312,45.041 -0.916,0 0,1.848 0.916,0 0,-1.848 z" /><path
             inkscape:connector-curvature="0"
             id="path3601"
             style="fill:#4f4c4d;fill-opacity:1;fill-rule:nonzero;stroke:none"
             d="m 57.034,45.041 -0.916,0 0,1.848 0.916,0 0,-1.848 z" /><path
             inkscape:connector-curvature="0"
             id="path3603"
             style="fill:#4f4c4d;fill-opacity:1;fill-rule:nonzero;stroke:none"
             d="m 43.667,45.041 -0.916,0 0,1.848 0.916,0 0,-1.848 z" /><path
             inkscape:connector-curvature="0"
             id="path3605"
             style="fill:#4f4c4d;fill-opacity:1;fill-rule:nonzero;stroke:none"
             d="m 29.901,45.041 -0.916,0 0,1.848 0.916,0 0,-1.848 z" /><path
             inkscape:connector-curvature="0"
             id="path3607"
             style="fill:#4f4c4d;fill-opacity:1;fill-rule:nonzero;stroke:none"
             d="m 113.759,45.041 -0.914,0 0,1.848 0.914,0 0,-1.848 z" /><path
             inkscape:connector-curvature="0"
             id="path3609"
             style="fill:#4f4c4d;fill-opacity:1;fill-rule:nonzero;stroke:none"
             d="m 99.993,45.041 -0.914,0 0,1.848 0.914,0 0,-1.848 z" /><path
             inkscape:connector-curvature="0"
             id="path3611"
             style="fill:#4f4c4d;fill-opacity:1;fill-rule:nonzero;stroke:none"
             d="m 20.562,54.127 -1.848,0 0,0.914 1.848,0 0,-0.914 z" /><path
             inkscape:connector-curvature="0"
             id="path3613"
             style="fill:#4f4c4d;fill-opacity:1;fill-rule:nonzero;stroke:none"
             d="m 20.562,68.404 -1.848,0 0,0.914 1.848,0 0,-0.914 z" /><path
             inkscape:connector-curvature="0"
             id="path3615"
             style="fill:#4f4c4d;fill-opacity:1;fill-rule:nonzero;stroke:none"
             d="m 20.562,81.771 -1.848,0 0,0.914 1.848,0 0,-0.914 z" /><path
             inkscape:connector-curvature="0"
             id="path3617"
             style="fill:#4f4c4d;fill-opacity:1;fill-rule:nonzero;stroke:none"
             d="m 20.562,95.246 -1.848,0 0,0.914 1.848,0 0,-0.914 z" /></g></g><text
         id="text3619"
         style="font-variant:normal;font-weight:bold;font-stretch:normal;font-size:8px;font-family:'Myriad Pro';-inkscape-font-specification:MyriadPro-Bold;writing-mode:lr-tb;fill:#3f7ec0;fill-opacity:1;fill-rule:nonzero;stroke:none"
         transform="matrix(1,0,0,-1,115.9922,89.1777)"><tspan
           style="color:#000000;clip-rule:nonzero;display:inline;overflow:visible;visibility:visible;opacity:1;isolation:auto;mix-blend-mode:normal;color-interpolation:sRGB;color-interpolation-filters:linearRGB;solid-color:#000000;solid-opacity:1;fill:#d34620;fill-opacity:1;fill-rule:nonzero;stroke:none;stroke-width:1;stroke-linecap:butt;stroke-linejoin:miter;stroke-miterlimit:4;stroke-dasharray:none;stroke-dashoffset:0;stroke-opacity:1;color-rendering:auto;image-rendering:auto;shape-rendering:auto;text-rendering:auto;enable-background:accumulate"
           y="0"
           x="0"
           id="tspan3621"
           sodipodi:role="line">дебет</tspan><tspan
           y="10"
           x="0"
           id="tspan3623"
           sodipodi:role="line">кредіт</tspan></text>
</g></g></svg>