<?xml version="1.0" encoding="UTF-8" standalone="no"?>
<!-- Created with Inkscape (http://www.inkscape.org/) -->

<svg
   xmlns:dc="http://purl.org/dc/elements/1.1/"
   xmlns:cc="http://creativecommons.org/ns#"
   xmlns:rdf="http://www.w3.org/1999/02/22-rdf-syntax-ns#"
   xmlns:svg="http://www.w3.org/2000/svg"
   xmlns="http://www.w3.org/2000/svg"
   xmlns:sodipodi="http://sodipodi.sourceforge.net/DTD/sodipodi-0.dtd"
   xmlns:inkscape="http://www.inkscape.org/namespaces/inkscape"
   id="svg2"
   version="1.1"
   inkscape:version="0.48.4 r9939"
   width="405"
   height="136.4575"
   xml:space="preserve"
   sodipodi:docname="fig_02_04.svg"><metadata
     id="metadata8"><rdf:RDF><cc:Work
         rdf:about=""><dc:format>image/svg+xml</dc:format><dc:type
           rdf:resource="http://purl.org/dc/dcmitype/StillImage" /><dc:title /></cc:Work></rdf:RDF></metadata><defs
     id="defs6"><clipPath
       clipPathUnits="userSpaceOnUse"
       id="clipPath18"><path
         d="m 0,109.166 324,0 L 324,0 0,0 0,109.166 z"
         id="path20" /></clipPath><clipPath
       clipPathUnits="userSpaceOnUse"
       id="clipPath246"><path
         d="m 0,109.166 324,0 L 324,0 0,0 0,109.166 z"
         id="path248" /></clipPath></defs><sodipodi:namedview
     pagecolor="#ffffff"
     bordercolor="#666666"
     borderopacity="1"
     objecttolerance="10"
     gridtolerance="10"
     guidetolerance="10"
     inkscape:pageopacity="0"
     inkscape:pageshadow="2"
     inkscape:window-width="1920"
     inkscape:window-height="1151"
     id="namedview4"
     showgrid="false"
     showguides="false"
     inkscape:guide-bbox="true"
     inkscape:zoom="2.8703297"
     inkscape:cx="186.11775"
     inkscape:cy="68.228752"
     inkscape:window-x="0"
     inkscape:window-y="25"
     inkscape:window-maximized="1"
     inkscape:current-layer="g4941"><sodipodi:guide
       orientation="0,1"
       position="230.63552,20.55513"
       id="guide3265" /><sodipodi:guide
       orientation="0,1"
       position="145.97626,126.46631"
       id="guide3342" /></sodipodi:namedview><g
     id="g10"
     inkscape:groupmode="layer"
     inkscape:label="fig5.10"
     transform="matrix(1.25,0,0,-1.25,0,136.4575)"><g
       id="g4941"
       transform="translate(11.2,0)"><rect
         style="color:#000000;fill:#ffffff;fill-opacity:1;fill-rule:nonzero;stroke:none;stroke-width:0;marker:none;visibility:visible;display:inline;overflow:visible;enable-background:accumulate"
         id="rect5199"
         width="594.35681"
         height="215.30627"
         x="-102.42725"
         y="-31.815845"
         transform="matrix(0.8,0,0,-0.8,-11.2,109.166)"
         inkscape:export-filename="/home/dvrnd/tmp/djcourse/vis/lections/figures/week02/fig_02_04.png"
         inkscape:export-xdpi="300"
         inkscape:export-ydpi="300" /><g
         id="g5071"><g
           id="g4676"
           transform="translate(-33.6,0)"><g
             id="g4637"><g
               id="g152"
               transform="translate(68.4199,69.5605)"><path
                 d="m 0,0 c 0,-1.144 -0.927,-2.071 -2.07,-2.071 -1.143,0 -2.071,0.927 -2.071,2.071 0,1.143 0.928,2.07 2.071,2.07 C -0.927,2.07 0,1.143 0,0"
                 style="fill:#3f7ec0;fill-opacity:1;fill-rule:evenodd;stroke:none"
                 id="path154"
                 inkscape:connector-curvature="0" /></g><g
               id="g156"
               transform="translate(65.3301,59.7979)"><path
                 d="m 0,0 c 0,-1.144 -0.927,-2.069 -2.07,-2.069 -1.144,0 -2.071,0.925 -2.071,2.069 0,1.144 0.927,2.071 2.071,2.071 C -0.927,2.071 0,1.144 0,0"
                 style="fill:#3f7ec0;fill-opacity:1;fill-rule:evenodd;stroke:none"
                 id="path158"
                 inkscape:connector-curvature="0" /></g><g
               id="g160"
               transform="translate(16.5537,66.8516)"><path
                 d="m 0,0 c 0,-1.144 -0.926,-2.07 -2.07,-2.07 -1.143,0 -2.07,0.926 -2.07,2.07 0,1.144 0.927,2.07 2.07,2.07 C -0.926,2.07 0,1.144 0,0"
                 style="fill:#3f7ec0;fill-opacity:1;fill-rule:evenodd;stroke:none"
                 id="path162"
                 inkscape:connector-curvature="0" /></g><g
               id="g164"
               transform="translate(22.3018,61.6748)"><path
                 d="m 0,0 c 0,-1.144 -0.927,-2.069 -2.07,-2.069 -1.144,0 -2.072,0.925 -2.072,2.069 0,1.144 0.928,2.07 2.072,2.07 C -0.927,2.07 0,1.144 0,0"
                 style="fill:#d34620;fill-opacity:1;fill-rule:evenodd;stroke:none"
                 id="path166"
                 inkscape:connector-curvature="0" /></g><g
               id="g168"
               transform="translate(20.2314,38.0889)"><path
                 d="m 0,0 c 0,-1.144 -0.928,-2.069 -2.071,-2.069 -1.143,0 -2.071,0.925 -2.071,2.069 0,1.144 0.928,2.07 2.071,2.07 C -0.928,2.07 0,1.144 0,0"
                 style="fill:#3f7ec0;fill-opacity:1;fill-rule:evenodd;stroke:none"
                 id="path170"
                 inkscape:connector-curvature="0" /></g><g
               id="g172"
               transform="translate(66.5942,46.7588)"><path
                 d="m 0,0 c 0,-1.144 -0.927,-2.07 -2.07,-2.07 -1.144,0 -2.07,0.926 -2.07,2.07 0,1.144 0.926,2.07 2.07,2.07 C -0.927,2.07 0,1.144 0,0"
                 style="fill:#3f7ec0;fill-opacity:1;fill-rule:evenodd;stroke:none"
                 id="path174"
                 inkscape:connector-curvature="0" /></g><g
               id="g176"
               transform="translate(70.4907,52.6172)"><path
                 d="m 0,0 c 0,-1.144 -0.927,-2.07 -2.07,-2.07 -1.144,0 -2.072,0.926 -2.072,2.07 0,1.144 0.928,2.071 2.072,2.071 C -0.927,2.071 0,1.144 0,0"
                 style="fill:#d34620;fill-opacity:1;fill-rule:evenodd;stroke:none"
                 id="path178"
                 inkscape:connector-curvature="0" /></g><g
               id="g180"
               transform="translate(73.3062,61.8691)"><path
                 d="m 0,0 c 0,-1.144 -0.927,-2.071 -2.07,-2.071 -1.144,0 -2.071,0.927 -2.071,2.071 0,1.143 0.927,2.07 2.071,2.07 C -0.927,2.07 0,1.143 0,0"
                 style="fill:#d34620;fill-opacity:1;fill-rule:evenodd;stroke:none"
                 id="path182"
                 inkscape:connector-curvature="0" /></g><g
               id="g184"
               transform="translate(21.1836,48.2168)"><path
                 d="m 0,0 c 0,-1.143 -0.927,-2.07 -2.071,-2.07 -1.143,0 -2.07,0.927 -2.07,2.07 0,1.144 0.927,2.071 2.07,2.071 C -0.927,2.071 0,1.144 0,0"
                 style="fill:#d34620;fill-opacity:1;fill-rule:evenodd;stroke:none"
                 id="path186"
                 inkscape:connector-curvature="0" /></g></g><g
             id="g4521"><path
               d="m 76.946,26.598 -69.228,0 0,53.833 69.228,0 0,-53.833 z"
               style="fill:none;stroke:#393536;stroke-width:0.16;stroke-linecap:butt;stroke-linejoin:miter;stroke-miterlimit:10;stroke-opacity:1;stroke-dasharray:none"
               id="path188"
               inkscape:connector-curvature="0" /><text
               transform="scale(1,-1)"
               sodipodi:linespacing="125%"
               id="text3249"
               y="-16.578249"
               x="12.056967"
               style="font-size:8px;font-style:normal;font-variant:normal;font-weight:normal;font-stretch:normal;line-height:125%;letter-spacing:0px;word-spacing:0px;fill:#000000;fill-opacity:1;stroke:none;font-family:Open Sans;-inkscape-font-specification:Open Sans"
               xml:space="preserve"><tspan
                 style="font-size:6.4000001px;font-style:normal;font-variant:normal;font-weight:300;font-stretch:normal;font-family:Roboto;-inkscape-font-specification:Roboto Light"
                 y="-16.578249"
                 x="12.056967"
                 id="tspan3251"
                 sodipodi:role="line">Повністю незалежні</tspan></text>
<text
               transform="matrix(0.8,0,0,-0.8,0,109.166)"
               sodipodi:linespacing="125%"
               id="text3338"
               y="9.9911985"
               x="11.496937"
               style="font-size:10px;font-style:normal;font-variant:normal;font-weight:normal;font-stretch:normal;line-height:125%;letter-spacing:0px;word-spacing:0px;fill:#000000;fill-opacity:1;stroke:none;font-family:Roboto Slab;-inkscape-font-specification:Roboto Slab"
               xml:space="preserve"><tspan
                 y="9.9911985"
                 x="11.496937"
                 id="tspan3340"
                 sodipodi:role="line">Позиція + Колір</tspan></text>
</g></g><g
           transform="translate(-22.4,0)"
           id="g4893"><text
             xml:space="preserve"
             style="font-size:8px;font-style:normal;font-variant:normal;font-weight:normal;font-stretch:normal;text-align:center;line-height:125%;letter-spacing:0px;word-spacing:0px;text-anchor:middle;fill:#000000;fill-opacity:1;stroke:none;font-family:Open Sans;-inkscape-font-specification:Open Sans"
             x="120.14025"
             y="-16.444101"
             id="text3249-2"
             sodipodi:linespacing="125%"
             transform="scale(1,-1)"><tspan
               sodipodi:role="line"
               id="tspan3251-7"
               x="120.9215"
               y="-16.444101"
               style="font-size:6.4000001px;font-style:normal;font-variant:normal;font-weight:300;font-stretch:normal;text-align:center;text-anchor:middle;font-family:Roboto;-inkscape-font-specification:Roboto Light">Частковий взаємний </tspan><tspan
               sodipodi:role="line"
               x="120.14025"
               y="-8.4441013"
               style="font-size:6.4000001px;font-style:normal;font-variant:normal;font-weight:300;font-stretch:normal;text-align:center;text-anchor:middle;font-family:Roboto;-inkscape-font-specification:Roboto Light"
               id="tspan3297">вплив</tspan></text>
<g
             id="g118"
             transform="translate(115.8447,72.125)"><path
               d="m 0,0 c 0,-1.144 -0.927,-2.07 -2.07,-2.07 -1.144,0 -2.071,0.926 -2.071,2.07 0,1.144 0.927,2.07 2.071,2.07 C -0.927,2.07 0,1.144 0,0"
               style="fill:#8338a0;fill-opacity:1;fill-rule:evenodd;stroke:none"
               id="path120"
               inkscape:connector-curvature="0" /></g><g
             id="g122"
             transform="translate(148.2109,70.0547)"><path
               d="m 0,0 c 0,-1.144 -0.928,-2.071 -2.07,-2.071 -1.144,0 -2.072,0.927 -2.072,2.071 0,1.142 0.928,2.07 2.072,2.07 C -0.928,2.07 0,1.142 0,0"
               style="fill:#3f7ec0;fill-opacity:1;fill-rule:evenodd;stroke:none"
               id="path124"
               inkscape:connector-curvature="0" /></g><g
             id="g126"
             transform="translate(97.313,47.7959)"><path
               d="m 0,0 c 0,-1.144 -0.927,-2.07 -2.07,-2.07 -1.144,0 -2.071,0.926 -2.071,2.07 0,1.144 0.927,2.071 2.071,2.071 C -0.927,2.071 0,1.144 0,0"
               style="fill:#8338a0;fill-opacity:1;fill-rule:evenodd;stroke:none"
               id="path128"
               inkscape:connector-curvature="0" /></g><g
             id="g130"
             transform="translate(107.438,39.8945)"><path
               d="m 0,0 c 0,-2.056 -1.667,-3.723 -3.723,-3.723 -2.055,0 -3.722,1.667 -3.722,3.723 0,2.057 1.667,3.723 3.722,3.723 C -1.667,3.723 0,2.057 0,0"
               style="fill:#3f7ec0;fill-opacity:1;fill-rule:evenodd;stroke:none"
               id="path132"
               inkscape:connector-curvature="0" /></g><g
             id="g134"
             transform="translate(127.3428,40.1973)"><path
               d="m 0,0 c 0,-3.688 -2.985,-6.678 -6.672,-6.678 -3.687,0 -6.676,2.99 -6.676,6.678 0,3.686 2.989,6.678 6.676,6.678 C -2.985,6.678 0,3.686 0,0"
               style="fill:#8338a0;fill-opacity:1;fill-rule:evenodd;stroke:none"
               id="path136"
               inkscape:connector-curvature="0" /></g><g
             id="g138"
             transform="translate(135.0488,44.6904)"><path
               d="m 0,0 c 0,-1.144 -0.928,-2.07 -2.071,-2.07 -1.144,0 -2.071,0.926 -2.071,2.07 0,1.144 0.927,2.07 2.071,2.07 C -0.928,2.07 0,1.144 0,0"
               style="fill:#3f7ec0;fill-opacity:1;fill-rule:evenodd;stroke:none"
               id="path140"
               inkscape:connector-curvature="0" /></g><g
             id="g142"
             transform="translate(145.6367,56.46)"><path
               d="m 0,0 c 0,-3.35 -2.716,-6.069 -6.065,-6.069 -3.35,0 -6.07,2.719 -6.07,6.069 0,3.351 2.72,6.065 6.07,6.065 C -2.716,6.065 0,3.351 0,0"
               style="fill:#3f7ec0;fill-opacity:1;fill-rule:evenodd;stroke:none"
               id="path144"
               inkscape:connector-curvature="0" /></g><g
             id="g146"
             transform="translate(109.2583,63.7451)"><path
               d="m 0,0 c 0,-3.001 -2.432,-5.434 -5.432,-5.434 -3.003,0 -5.435,2.433 -5.435,5.434 0,3 2.432,5.434 5.435,5.434 C -2.432,5.434 0,3 0,0"
               style="fill:#3f7ec0;fill-opacity:1;fill-rule:evenodd;stroke:none"
               id="path148"
               inkscape:connector-curvature="0" /></g><path
             d="m 156.118,26.598 -69.228,0 0,53.833 69.228,0 0,-53.833 z"
             style="fill:none;stroke:#393536;stroke-width:0.16;stroke-linecap:butt;stroke-linejoin:miter;stroke-miterlimit:10;stroke-opacity:1;stroke-dasharray:none"
             id="path150"
             inkscape:connector-curvature="0" /><text
             xml:space="preserve"
             style="font-size:8px;font-style:normal;font-variant:normal;font-weight:normal;font-stretch:normal;line-height:125%;letter-spacing:0px;word-spacing:0px;fill:#000000;fill-opacity:1;stroke:none;font-family:Roboto Slab;-inkscape-font-specification:Roboto Slab"
             x="88.854286"
             y="-101.17304"
             id="text3338-0"
             sodipodi:linespacing="125%"
             transform="scale(1,-1)"><tspan
               sodipodi:role="line"
               id="tspan3340-8"
               x="88.854286"
               y="-101.17304">Розмір + Колір</tspan></text>
</g><g
           id="g4917"
           transform="translate(-11.2,0)"><text
             xml:space="preserve"
             style="font-size:8px;font-style:normal;font-variant:normal;font-weight:normal;font-stretch:normal;text-align:center;line-height:125%;letter-spacing:0px;word-spacing:0px;text-anchor:middle;fill:#000000;fill-opacity:1;stroke:none;font-family:Open Sans;-inkscape-font-specification:Open Sans"
             x="199.21309"
             y="-16.444101"
             id="text3249-2-3"
             sodipodi:linespacing="125%"
             transform="scale(1,-1)"><tspan
               sodipodi:role="line"
               id="tspan3251-7-4"
               x="199.99434"
               y="-16.444101"
               style="font-size:6.4000001px;font-style:normal;font-variant:normal;font-weight:300;font-stretch:normal;text-align:center;text-anchor:middle;font-family:Roboto;-inkscape-font-specification:Roboto Light">Сильний взаємний </tspan><tspan
               sodipodi:role="line"
               x="199.21309"
               y="-8.4441013"
               style="font-size:6.4000001px;font-style:normal;font-variant:normal;font-weight:300;font-stretch:normal;text-align:center;text-anchor:middle;font-family:Roboto;-inkscape-font-specification:Roboto Light"
               id="tspan3299">вплив</tspan></text>
<path
             d="m 235.291,26.598 -69.228,0 0,53.833 69.228,0 0,-53.833 z"
             style="fill:none;stroke:#393536;stroke-width:0.16;stroke-linecap:butt;stroke-linejoin:miter;stroke-miterlimit:10;stroke-opacity:1;stroke-dasharray:none"
             id="path190"
             inkscape:connector-curvature="0" /><g
             id="g192"
             transform="translate(187.3721,70.0566)"><path
               d="m 0,0 c 0,-3.351 -2.714,-6.07 -6.064,-6.07 -3.351,0 -6.071,2.719 -6.071,6.07 0,3.351 2.72,6.065 6.071,6.065 C -2.714,6.065 0,3.351 0,0"
               style="fill:#3f7ec0;fill-opacity:1;fill-rule:evenodd;stroke:none"
               id="path194"
               inkscape:connector-curvature="0" /></g><g
             id="g196"
             transform="translate(187.3721,58.2578)"><path
               d="m 0,0 c 0,-0.695 -2.714,-1.261 -6.064,-1.261 -3.351,0 -6.071,0.566 -6.071,1.261 0,0.697 2.72,1.262 6.071,1.262 C -2.714,1.262 0,0.697 0,0"
               style="fill:#3f7ec0;fill-opacity:1;fill-rule:evenodd;stroke:none"
               id="path198"
               inkscape:connector-curvature="0" /></g><g
             id="g200"
             transform="translate(183.1416,42.9766)"><path
               d="m 0,0 c 0,-3.351 -0.82,-6.07 -1.835,-6.07 -1.015,0 -1.838,2.719 -1.838,6.07 0,3.351 0.823,6.065 1.838,6.065 C -0.82,6.065 0,3.351 0,0"
               style="fill:#3f7ec0;fill-opacity:1;fill-rule:evenodd;stroke:none"
               id="path202"
               inkscape:connector-curvature="0" /></g><g
             id="g204"
             transform="translate(227.8525,70.0557)"><path
               d="m 0,0 c 0,-1.014 -0.82,-1.837 -1.835,-1.837 -1.015,0 -1.838,0.823 -1.838,1.837 0,1.014 0.823,1.834 1.838,1.834 C -0.82,1.834 0,1.014 0,0"
               style="fill:#3f7ec0;fill-opacity:1;fill-rule:evenodd;stroke:none"
               id="path206"
               inkscape:connector-curvature="0" /></g><g
             id="g208"
             transform="translate(230.6523,44.5059)"><path
               d="m 0,0 c 0,-4.409 -3.571,-7.988 -7.98,-7.988 -4.409,0 -7.988,3.579 -7.988,7.988 0,4.407 3.579,7.98 7.988,7.98 C -3.571,7.98 0,4.407 0,0"
               style="fill:#3f7ec0;fill-opacity:1;fill-rule:evenodd;stroke:none"
               id="path210"
               inkscape:connector-curvature="0" /></g><g
             id="g212"
             transform="translate(230.6523,33.2461)"><path
               d="m 0,0 c 0,-0.854 -3.571,-1.548 -7.98,-1.548 -4.409,0 -7.988,0.694 -7.988,1.548 0,0.854 3.579,1.546 7.988,1.546 C -3.571,1.546 0,0.854 0,0"
               style="fill:#3f7ec0;fill-opacity:1;fill-rule:evenodd;stroke:none"
               id="path214"
               inkscape:connector-curvature="0" /></g><g
             id="g216"
             transform="translate(202.5,55.3984)"><path
               d="m 0,0 c 0,-1.014 -0.82,-1.837 -1.835,-1.837 -1.015,0 -1.838,0.823 -1.838,1.837 0,1.014 0.823,1.834 1.838,1.834 C -0.82,1.834 0,1.014 0,0"
               style="fill:#3f7ec0;fill-opacity:1;fill-rule:evenodd;stroke:none"
               id="path218"
               inkscape:connector-curvature="0" /></g><g
             id="g220"
             transform="translate(212.5439,67.4922)"><path
               d="m 0,0 c 0,-3.351 -0.821,-6.07 -1.836,-6.07 -1.015,0 -1.838,2.719 -1.838,6.07 0,3.351 0.823,6.065 1.838,6.065 C -0.821,6.065 0,3.351 0,0"
               style="fill:#3f7ec0;fill-opacity:1;fill-rule:evenodd;stroke:none"
               id="path222"
               inkscape:connector-curvature="0" /></g><text
             xml:space="preserve"
             style="font-size:8px;font-style:normal;font-variant:normal;font-weight:normal;font-stretch:normal;line-height:125%;letter-spacing:0px;word-spacing:0px;fill:#000000;fill-opacity:1;stroke:none;font-family:Roboto Slab;-inkscape-font-specification:Roboto Slab"
             x="166.13803"
             y="-101.17304"
             id="text3338-0-9"
             sodipodi:linespacing="125%"
             transform="scale(1,-1)"><tspan
               sodipodi:role="line"
               id="tspan3340-8-4"
               x="166.13803"
               y="-101.17304">Ширина + Висота</tspan></text>
</g><path
           inkscape:connector-curvature="0"
           d="m 314.464,26.598 -69.228,0 0,53.833 69.228,0 0,-53.833 z"
           style="fill:none;stroke:#393536;stroke-width:0.16;stroke-linecap:butt;stroke-linejoin:miter;stroke-miterlimit:10;stroke-opacity:1;stroke-dasharray:none"
           id="path12" /><text
           xml:space="preserve"
           style="font-size:8px;font-style:normal;font-variant:normal;font-weight:normal;font-stretch:normal;text-align:center;line-height:125%;letter-spacing:0px;word-spacing:0px;text-anchor:middle;fill:#000000;fill-opacity:1;stroke:none;font-family:Open Sans;-inkscape-font-specification:Open Sans"
           x="280.59412"
           y="-16.444101"
           id="text3249-2-3-2"
           sodipodi:linespacing="125%"
           transform="scale(1,-1)"><tspan
             sodipodi:role="line"
             id="tspan3251-7-4-2"
             x="280.59412"
             y="-16.444101"
             style="font-size:6.4000001px;font-style:normal;font-variant:normal;font-weight:300;font-stretch:normal;text-align:center;text-anchor:middle;font-family:Roboto;-inkscape-font-specification:Roboto Light">Неможливо розділити</tspan><tspan
             sodipodi:role="line"
             x="280.59412"
             y="-8.4441013"
             style="font-size:6.4000001px;font-style:normal;font-variant:normal;font-weight:300;font-stretch:normal;text-align:center;text-anchor:middle;font-family:Roboto;-inkscape-font-specification:Roboto Light"
             id="tspan3299-4" /></text>
<g
           id="g22"
           transform="translate(268.6963,68.6777)"><path
             d="m 0,0 c 0,-1.143 -0.926,-2.07 -2.071,-2.07 -1.144,0 -2.07,0.927 -2.07,2.07 0,1.144 0.926,2.071 2.07,2.071 C -0.926,2.071 0,1.144 0,0"
             style="fill:#c66abc;fill-opacity:1;fill-rule:evenodd;stroke:none"
             id="path24"
             inkscape:connector-curvature="0" /></g><g
           id="g26"
           transform="translate(305.2041,73.5137)"><path
             d="m 0,0 c 0,-1.144 -0.929,-2.07 -2.072,-2.07 -1.142,0 -2.071,0.926 -2.071,2.07 0,1.144 0.929,2.07 2.071,2.07 C -0.929,2.07 0,1.144 0,0"
             style="fill:#d4d3d2;fill-opacity:1;fill-rule:evenodd;stroke:none"
             id="path28"
             inkscape:connector-curvature="0" /></g><g
           id="g30"
           transform="translate(268.3242,46.7627)"><path
             d="m 0,0 c 0,-1.144 -0.927,-2.069 -2.07,-2.069 -1.144,0 -2.073,0.925 -2.073,2.069 0,1.145 0.929,2.07 2.073,2.07 C -0.927,2.07 0,1.145 0,0"
             style="fill:#c66abc;fill-opacity:1;fill-rule:evenodd;stroke:none"
             id="path32"
             inkscape:connector-curvature="0" /></g><g
           id="g34"
           transform="translate(287.3301,51.2549)"><path
             d="m 0,0 c 0,-1.143 -0.927,-2.07 -2.07,-2.07 -1.144,0 -2.07,0.927 -2.07,2.07 0,1.144 0.926,2.071 2.07,2.071 C -0.927,2.071 0,1.144 0,0"
             style="fill:#c66abc;fill-opacity:1;fill-rule:evenodd;stroke:none"
             id="path36"
             inkscape:connector-curvature="0" /></g><g
           id="g38"
           transform="translate(300.8828,48.3398)"><path
             d="m 0,0 c 0,-1.144 -0.927,-2.07 -2.07,-2.07 -1.144,0 -2.071,0.926 -2.071,2.07 0,1.144 0.927,2.07 2.071,2.07 C -0.927,2.07 0,1.144 0,0"
             style="fill:#7ed4cd;fill-opacity:1;fill-rule:evenodd;stroke:none"
             id="path40"
             inkscape:connector-curvature="0" /></g><g
           id="g42"
           transform="translate(292.04,53.3262)"><path
             d="m 0,0 c 0,-1.144 -0.927,-2.071 -2.07,-2.071 -1.144,0 -2.071,0.927 -2.071,2.071 0,1.144 0.927,2.071 2.071,2.071 C -0.927,2.071 0,1.144 0,0"
             style="fill:#7872c0;fill-opacity:1;fill-rule:evenodd;stroke:none"
             id="path44"
             inkscape:connector-curvature="0" /></g><g
           id="g46"
           transform="translate(260.8916,70.4072)"><path
             d="m 0,0 c 0,-1.144 -0.926,-2.07 -2.07,-2.07 -1.144,0 -2.07,0.926 -2.07,2.07 0,1.144 0.926,2.07 2.07,2.07 C -0.926,2.07 0,1.144 0,0"
             style="fill:#d4d3d2;fill-opacity:1;fill-rule:evenodd;stroke:none"
             id="path48"
             inkscape:connector-curvature="0" /></g><g
           id="g50"
           transform="translate(255.1445,42.9727)"><path
             d="m 0,0 c 0,-1.144 -0.927,-2.07 -2.07,-2.07 -1.144,0 -2.071,0.926 -2.071,2.07 0,1.144 0.927,2.072 2.071,2.072 C -0.927,2.072 0,1.144 0,0"
             style="fill:#c66abc;fill-opacity:1;fill-rule:evenodd;stroke:none"
             id="path52"
             inkscape:connector-curvature="0" /></g><g
           id="g54"
           transform="translate(286.0986,70.4072)"><path
             d="m 0,0 c 0,-1.144 -0.927,-2.07 -2.07,-2.07 -1.144,0 -2.071,0.926 -2.071,2.07 0,1.144 0.927,2.07 2.071,2.07 C -0.927,2.07 0,1.144 0,0"
             style="fill:#7ed4cd;fill-opacity:1;fill-rule:evenodd;stroke:none"
             id="path56"
             inkscape:connector-curvature="0" /></g><g
           id="g58"
           transform="translate(292.8799,68.6777)"><path
             d="m 0,0 c 0,-1.143 -0.927,-2.07 -2.07,-2.07 -1.144,0 -2.071,0.927 -2.071,2.07 0,1.144 0.927,2.071 2.071,2.071 C -0.927,2.071 0,1.144 0,0"
             style="fill:#7872c0;fill-opacity:1;fill-rule:evenodd;stroke:none"
             id="path60"
             inkscape:connector-curvature="0" /></g><g
           id="g62"
           transform="translate(258.4688,51.6475)"><path
             d="m 0,0 c -0.809,0.81 -0.809,2.121 0,2.929 0.81,0.808 2.12,0.808 2.929,0 C 3.736,2.121 3.736,0.81 2.929,0 2.12,-0.808 0.81,-0.808 0,0"
             style="fill:#7872c0;fill-opacity:1;fill-rule:evenodd;stroke:none"
             id="path64"
             inkscape:connector-curvature="0" /></g><g
           id="g66"
           transform="translate(291.9805,39.043)"><path
             d="m 0,0 c -0.809,0.809 -0.809,2.12 0,2.928 0.81,0.809 2.12,0.809 2.929,0 C 3.736,2.12 3.736,0.809 2.929,0 2.12,-0.809 0.81,-0.809 0,0"
             style="fill:#d4d3d2;fill-opacity:1;fill-rule:evenodd;stroke:none"
             id="path68"
             inkscape:connector-curvature="0" /></g><g
           id="g70"
           transform="translate(286.4531,37.9082)"><path
             d="m 0,0 c -0.809,0.809 -0.809,2.12 0,2.928 0.81,0.809 2.119,0.809 2.928,0 C 3.737,2.12 3.737,0.809 2.928,0 2.119,-0.809 0.809,-0.809 0,0"
             style="fill:#7872c0;fill-opacity:1;fill-rule:evenodd;stroke:none"
             id="path72"
             inkscape:connector-curvature="0" /></g><g
           id="g74"
           transform="translate(290.1133,34.248)"><path
             d="m 0,0 c -0.808,0.809 -0.808,2.119 0,2.929 0.81,0.808 2.12,0.808 2.929,0 C 3.737,2.119 3.737,0.809 2.929,0 2.12,-0.809 0.81,-0.809 0,0"
             style="fill:#7872c0;fill-opacity:1;fill-rule:evenodd;stroke:none"
             id="path76"
             inkscape:connector-curvature="0" /></g><g
           id="g78"
           transform="translate(275.0791,33.8525)"><path
             d="m 0,0 c -0.81,0.809 -0.81,2.119 0,2.928 0.808,0.809 2.119,0.809 2.927,0 C 3.735,2.119 3.735,0.809 2.927,0 2.119,-0.81 0.808,-0.81 0,0"
             style="fill:#c66abc;fill-opacity:1;fill-rule:evenodd;stroke:none"
             id="path80"
             inkscape:connector-curvature="0" /></g><g
           id="g82"
           transform="translate(277.9463,55.46)"><path
             d="M 0,0 C 0,1.142 0.926,2.07 2.069,2.07 3.213,2.07 4.14,1.142 4.14,0 4.14,-1.144 3.213,-2.072 2.069,-2.072 0.926,-2.072 0,-1.144 0,0"
             style="fill:#7872c0;fill-opacity:1;fill-rule:evenodd;stroke:none"
             id="path84"
             inkscape:connector-curvature="0" /></g><g
           id="g86"
           transform="translate(272.2314,65.5078)"><path
             d="m 0,0 c 0.808,-0.808 0.808,-2.119 0,-2.928 -0.81,-0.807 -2.119,-0.807 -2.928,0 -0.809,0.809 -0.809,2.12 0,2.928 C -2.119,0.81 -0.81,0.81 0,0"
             style="fill:#7872c0;fill-opacity:1;fill-rule:evenodd;stroke:none"
             id="path88"
             inkscape:connector-curvature="0" /></g><g
           id="g90"
           transform="translate(266.3838,32.7773)"><path
             d="m 0,0 c 0.81,-0.808 0.81,-2.12 0,-2.928 -0.809,-0.808 -2.119,-0.808 -2.928,0 -0.807,0.808 -0.807,2.12 0,2.928 0.809,0.809 2.119,0.809 2.928,0"
             style="fill:#7ed4cd;fill-opacity:1;fill-rule:evenodd;stroke:none"
             id="path92"
             inkscape:connector-curvature="0" /></g><g
           id="g94"
           transform="translate(269.042,40.8359)"><path
             d="m 0,0 c 0.81,-0.808 0.81,-2.118 0,-2.928 -0.808,-0.808 -2.119,-0.808 -2.927,0 -0.808,0.81 -0.808,2.12 0,2.928 0.808,0.81 2.119,0.81 2.927,0"
             style="fill:#7ed4cd;fill-opacity:1;fill-rule:evenodd;stroke:none"
             id="path96"
             inkscape:connector-curvature="0" /></g><g
           id="g98"
           transform="translate(271.4697,52.8574)"><path
             d="m 0,0 c 0.808,-0.809 0.808,-2.119 0,-2.929 -0.809,-0.806 -2.119,-0.806 -2.928,0 -0.809,0.81 -0.809,2.12 0,2.929 0.809,0.809 2.119,0.809 2.928,0"
             style="fill:#7ed4cd;fill-opacity:1;fill-rule:evenodd;stroke:none"
             id="path100"
             inkscape:connector-curvature="0" /></g><g
           id="g102"
           transform="translate(273.665,47.7334)"><path
             d="m 0,0 c 0.809,-0.809 0.809,-2.119 0,-2.928 -0.809,-0.809 -2.119,-0.809 -2.928,0 -0.807,0.809 -0.809,2.119 0,2.928 0.809,0.808 2.119,0.808 2.928,0"
             style="fill:#d4d3d2;fill-opacity:1;fill-rule:evenodd;stroke:none"
             id="path104"
             inkscape:connector-curvature="0" /></g><g
           id="g106"
           transform="translate(273.3359,57.6514)"><path
             d="m 0,0 c 0.809,-0.809 0.809,-2.119 0,-2.928 -0.809,-0.807 -2.119,-0.807 -2.929,0 -0.808,0.809 -0.808,2.119 0,2.928 0.81,0.81 2.12,0.81 2.929,0"
             style="fill:#7ed4cd;fill-opacity:1;fill-rule:evenodd;stroke:none"
             id="path108"
             inkscape:connector-curvature="0" /></g><g
           id="g110"
           transform="translate(305.0225,57.5303)"><path
             d="m 0,0 c 0,-1.144 -0.927,-2.07 -2.07,-2.07 -1.144,0 -2.07,0.926 -2.07,2.07 0,1.144 0.926,2.07 2.07,2.07 C -0.927,2.07 0,1.144 0,0"
             style="fill:#7ed4cd;fill-opacity:1;fill-rule:evenodd;stroke:none"
             id="path112"
             inkscape:connector-curvature="0" /></g><g
           id="g114"
           transform="translate(300.8828,61.9736)"><path
             d="m 0,0 c 0,-1.144 -0.927,-2.07 -2.07,-2.07 -1.144,0 -2.071,0.926 -2.071,2.07 0,1.144 0.927,2.07 2.071,2.07 C -0.927,2.07 0,1.144 0,0"
             style="fill:#d4d3d2;fill-opacity:1;fill-rule:evenodd;stroke:none"
             id="path116"
             inkscape:connector-curvature="0" /></g><text
           xml:space="preserve"
           style="font-size:8px;font-style:normal;font-variant:normal;font-weight:normal;font-stretch:normal;line-height:125%;letter-spacing:0px;word-spacing:0px;fill:#000000;fill-opacity:1;stroke:none;font-family:Roboto Slab;-inkscape-font-specification:Roboto Slab"
           x="244.25012"
           y="-101.17304"
           id="text3338-0-6"
           sodipodi:linespacing="125%"
           transform="scale(1,-1)"><tspan
             sodipodi:role="line"
             id="tspan3340-8-46"
             x="244.25012"
             y="-101.17304">Червоний + Зелений</tspan></text>
</g></g></g></svg>