<?xml version="1.0" encoding="UTF-8" standalone="no"?>
<!-- Created with Inkscape (http://www.inkscape.org/) -->

<svg
   xmlns:dc="http://purl.org/dc/elements/1.1/"
   xmlns:cc="http://creativecommons.org/ns#"
   xmlns:rdf="http://www.w3.org/1999/02/22-rdf-syntax-ns#"
   xmlns:svg="http://www.w3.org/2000/svg"
   xmlns="http://www.w3.org/2000/svg"
   xmlns:sodipodi="http://sodipodi.sourceforge.net/DTD/sodipodi-0.dtd"
   xmlns:inkscape="http://www.inkscape.org/namespaces/inkscape"
   id="svg2"
   version="1.1"
   inkscape:version="0.48.4 r9939"
   width="202.5"
   height="134.58875"
   xml:space="preserve"
   sodipodi:docname="fig3.5a.pdf"><metadata
     id="metadata8"><rdf:RDF><cc:Work
         rdf:about=""><dc:format>image/svg+xml</dc:format><dc:type
           rdf:resource="http://purl.org/dc/dcmitype/StillImage" /><dc:title></dc:title></cc:Work></rdf:RDF></metadata><defs
     id="defs6"><clipPath
       clipPathUnits="userSpaceOnUse"
       id="clipPath16"><path
         d="m 0,107.671 162,0 L 162,0 0,0 0,107.671 z"
         id="path18" /></clipPath><clipPath
       clipPathUnits="userSpaceOnUse"
       id="clipPath36"><path
         d="m 0,107.671 162,0 L 162,0 0,0 0,107.671 z"
         id="path38" /></clipPath></defs><sodipodi:namedview
     pagecolor="#ffffff"
     bordercolor="#666666"
     borderopacity="1"
     objecttolerance="10"
     gridtolerance="10"
     guidetolerance="10"
     inkscape:pageopacity="0"
     inkscape:pageshadow="2"
     inkscape:window-width="1920"
     inkscape:window-height="1151"
     id="namedview4"
     showgrid="false"
     inkscape:zoom="4.9596183"
     inkscape:cx="102.39058"
     inkscape:cy="67.294373"
     inkscape:window-x="0"
     inkscape:window-y="25"
     inkscape:window-maximized="1"
     inkscape:current-layer="g10" /><g
     id="g10"
     inkscape:groupmode="layer"
     inkscape:label="fig3.5a"
     transform="matrix(1.25,0,0,-1.25,0,134.58875)"><rect
       style="color:#000000;fill:#ffffff;fill-opacity:1;fill-rule:nonzero;stroke:none;stroke-width:0.5;marker:none;visibility:visible;display:inline;overflow:visible;enable-background:accumulate"
       id="rect3072"
       width="271.31122"
       height="128.39699"
       x="-53.391205"
       y="-120.97706"
       transform="scale(1,-1)" /><g
       id="g12"><g
         id="g14"
         clip-path="url(#clipPath16)"><g
           id="g20"
           transform="translate(21.3213,46.7383)"><path
             d="m 0,0 c -0.199,0 -0.402,0.059 -0.576,0.184 -0.451,0.32 -0.557,0.943 -0.238,1.394 1.703,2.402 25.22,28.693 41.357,29.668 4.051,0.244 11.576,0.262 17.623,0.275 3.891,0.01 7.563,0.018 8.252,0.096 1.791,0.205 3.658,3.262 5.465,6.219 2.287,3.746 4.652,7.619 8.055,8.426 1.849,0.439 3.685,0.463 5.072,0.439 2.344,-0.043 4.832,-0.16 7.394,-0.347 0.551,-0.04 0.965,-0.518 0.924,-1.069 -0.039,-0.551 -0.523,-0.959 -1.068,-0.926 -2.528,0.184 -4.979,0.299 -7.287,0.342 -1.276,0.026 -2.944,0.002 -4.573,-0.385 -2.591,-0.615 -4.834,-4.285 -6.81,-7.523 -2.152,-3.522 -4.184,-6.848 -6.945,-7.162 -0.764,-0.086 -3.573,-0.098 -8.473,-0.11 C 52.15,29.508 44.656,29.49 40.664,29.25 25.535,28.336 2.402,2.658 0.816,0.422 0.623,0.146 0.314,0 0,0"
             style="fill:#d34620;fill-opacity:1;fill-rule:nonzero;stroke:none"
             id="path22" /></g><g
           id="g24"
           transform="translate(21.0186,46.3477)"><path
             d="m 0,0 c -0.326,0 -0.645,0.158 -0.836,0.451 -0.303,0.461 -0.176,1.082 0.287,1.385 0.414,0.271 10.184,6.666 13.899,7.654 3.312,0.879 12.904,0.065 13.31,0.03 2.828,-0.282 10.611,-0.838 12.776,-0.057 3.337,1.207 13.025,7.289 13.123,7.35 0.365,0.251 9.791,6.718 13.408,7.72 1.861,0.518 4.611,0.291 7.271,0.071 2.291,-0.188 4.66,-0.383 6.09,-0.059 2.713,0.615 10.113,5.473 12.736,7.291 0.456,0.316 1.077,0.203 1.391,-0.25 0.316,-0.455 0.203,-1.078 -0.25,-1.393 C 92.807,29.918 83.416,23.42 79.771,22.594 78.041,22.201 75.629,22.398 73.074,22.611 70.59,22.814 68.02,23.027 66.5,22.605 63.764,21.848 56.303,16.961 53.658,15.143 53.219,14.865 43.654,8.861 40.115,7.582 37.139,6.506 27.559,7.42 26.475,7.527 23.814,7.758 16.336,8.213 13.863,7.557 10.459,6.652 0.646,0.229 0.549,0.164 0.379,0.053 0.189,0 0,0"
             style="fill:#3f7ec0;fill-opacity:1;fill-rule:nonzero;stroke:none"
             id="path26" /></g></g></g><text
       transform="scale(1,-1)"
       id="text28"
       style="color:#000000;fill:#4f4c4d;fill-opacity:1;fill-rule:nonzero;stroke:none;marker:none;visibility:visible;display:inline;overflow:visible;enable-background:accumulate"
       x="43.970901"
       y="-14.262501"><tspan
         style="font-size:10px;font-variant:normal;font-weight:bold;font-stretch:normal;writing-mode:lr-tb;color:#000000;fill:#4f4c4d;fill-opacity:1;fill-rule:nonzero;stroke:none;marker:none;visibility:visible;display:inline;overflow:visible;enable-background:accumulate;font-family:Roboto Slab;-inkscape-font-specification:Roboto Slab Bold"
         sodipodi:role="line"
         id="tspan30"
         x="43.970901"
         y="-14.262501">Початкові дані</tspan></text>
<g
       id="g32"><g
         id="g34"
         clip-path="url(#clipPath36)"><g
           id="g40"
           transform="translate(123.7803,46.4316)"><path
             d="m 0,0 -103.676,0 0,49.729 0.914,0 0,-48.813 L 0,0.916 0,0 z"
             style="fill:#4f4c4d;fill-opacity:1;fill-rule:nonzero;stroke:none"
             id="path42" /></g><path
           d="m 20.562,46.432 -1.848,0 0,0.916 1.848,0 0,-0.916 z"
           style="fill:#4f4c4d;fill-opacity:1;fill-rule:nonzero;stroke:none"
           id="path44" /><path
           d="m 20.562,61.309 -1.848,0 0,0.916 1.848,0 0,-0.916 z"
           style="fill:#4f4c4d;fill-opacity:1;fill-rule:nonzero;stroke:none"
           id="path46" /><path
           d="m 20.562,75.586 -1.848,0 0,0.914 1.848,0 0,-0.914 z"
           style="fill:#4f4c4d;fill-opacity:1;fill-rule:nonzero;stroke:none"
           id="path48" /><path
           d="m 20.562,88.953 -1.848,0 0,0.914 1.848,0 0,-0.914 z"
           style="fill:#4f4c4d;fill-opacity:1;fill-rule:nonzero;stroke:none"
           id="path50" /><path
           d="m 86.188,45.041 -0.916,0 0,1.848 0.916,0 0,-1.848 z"
           style="fill:#4f4c4d;fill-opacity:1;fill-rule:nonzero;stroke:none"
           id="path52" /><path
           d="m 71.312,45.041 -0.916,0 0,1.848 0.916,0 0,-1.848 z"
           style="fill:#4f4c4d;fill-opacity:1;fill-rule:nonzero;stroke:none"
           id="path54" /><path
           d="m 57.034,45.041 -0.916,0 0,1.848 0.916,0 0,-1.848 z"
           style="fill:#4f4c4d;fill-opacity:1;fill-rule:nonzero;stroke:none"
           id="path56" /><path
           d="m 43.667,45.041 -0.916,0 0,1.848 0.916,0 0,-1.848 z"
           style="fill:#4f4c4d;fill-opacity:1;fill-rule:nonzero;stroke:none"
           id="path58" /><path
           d="m 29.901,45.041 -0.916,0 0,1.848 0.916,0 0,-1.848 z"
           style="fill:#4f4c4d;fill-opacity:1;fill-rule:nonzero;stroke:none"
           id="path60" /><path
           d="m 113.759,45.041 -0.914,0 0,1.848 0.914,0 0,-1.848 z"
           style="fill:#4f4c4d;fill-opacity:1;fill-rule:nonzero;stroke:none"
           id="path62" /><path
           d="m 99.993,45.041 -0.914,0 0,1.848 0.914,0 0,-1.848 z"
           style="fill:#4f4c4d;fill-opacity:1;fill-rule:nonzero;stroke:none"
           id="path64" /><path
           d="m 20.562,54.127 -1.848,0 0,0.914 1.848,0 0,-0.914 z"
           style="fill:#4f4c4d;fill-opacity:1;fill-rule:nonzero;stroke:none"
           id="path66" /><path
           d="m 20.562,68.404 -1.848,0 0,0.914 1.848,0 0,-0.914 z"
           style="fill:#4f4c4d;fill-opacity:1;fill-rule:nonzero;stroke:none"
           id="path68" /><path
           d="m 20.562,81.771 -1.848,0 0,0.914 1.848,0 0,-0.914 z"
           style="fill:#4f4c4d;fill-opacity:1;fill-rule:nonzero;stroke:none"
           id="path70" /><path
           d="m 20.562,95.246 -1.848,0 0,0.914 1.848,0 0,-0.914 z"
           style="fill:#4f4c4d;fill-opacity:1;fill-rule:nonzero;stroke:none"
           id="path72" /></g></g><text
       transform="matrix(1,0,0,-1,115.9922,89.1777)"
       id="text74"
       style="font-style:normal;font-variant:normal;font-weight:bold;font-stretch:normal;font-family:Roboto Slab;-inkscape-font-specification:Roboto Slab Bold"><tspan
         style="font-size:8px;font-style:normal;font-variant:normal;font-weight:bold;font-stretch:normal;word-spacing:0px;writing-mode:lr-tb;fill:#d34620;fill-opacity:1;fill-rule:nonzero;stroke:none;font-family:Roboto Slab;-inkscape-font-specification:Roboto Slab Bold"
         sodipodi:role="line"
         id="tspan76"
         x="0"
         y="0"
         dx="-0.28999984">експорт</tspan><tspan
         style="font-size:8px;font-style:normal;font-variant:normal;font-weight:bold;font-stretch:normal;writing-mode:lr-tb;fill:#3f7ec0;fill-opacity:1;fill-rule:nonzero;stroke:none;font-family:Roboto Slab;-inkscape-font-specification:Roboto Slab Bold"
         sodipodi:role="line"
         id="tspan78"
         x="0"
         y="10">імпорт</tspan></text>
</g></svg>